<?xml version="1.0" encoding="UTF-8" standalone="no"?><!DOCTYPE svg PUBLIC "-//W3C//DTD SVG 1.1//EN" "http://www.w3.org/Graphics/SVG/1.1/DTD/svg11.dtd"><svg width="100%" height="100%" viewBox="0 0 512 512" version="1.1" xmlns="http://www.w3.org/2000/svg" xmlns:xlink="http://www.w3.org/1999/xlink" xml:space="preserve" xmlns:serif="http://www.serif.com/" style="fill-rule:evenodd;clip-rule:evenodd;stroke-linejoin:round;stroke-miterlimit:2;"><g><path d="M154.782,463.805l266.466,0c23.426,0 42.752,-19.131 42.752,-42.752l0,-266.466c0,-23.426 -19.131,-42.752 -42.752,-42.752l-266.466,0c-23.426,0 -42.752,19.131 -42.752,42.752l0,266.466c0.195,23.426 19.326,42.752 42.752,42.752Z" style="fill-rule:nonzero;"/><path d="M90.947,48l266.466,0c23.426,0 42.752,19.131 42.752,42.752l0,5.271l-261.391,0c-23.425,0 -42.751,19.13 -42.751,42.751l0,261.196l-5.271,0c-23.426,0 -42.752,-19.131 -42.752,-42.752l0,-266.466c0.195,-23.426 19.326,-42.752 42.947,-42.752Z" style="fill:#6e6d6f;fill-rule:nonzero;"/></g></svg>