<?xml version="1.0" encoding="UTF-8" standalone="no"?><!DOCTYPE svg PUBLIC "-//W3C//DTD SVG 1.1//EN" "http://www.w3.org/Graphics/SVG/1.1/DTD/svg11.dtd"><svg width="100%" height="100%" viewBox="0 0 512 512" version="1.1" xmlns="http://www.w3.org/2000/svg" xmlns:xlink="http://www.w3.org/1999/xlink" xml:space="preserve" xmlns:serif="http://www.serif.com/" style="fill-rule:evenodd;clip-rule:evenodd;stroke-linejoin:round;stroke-miterlimit:1.41421;"><path d="M321,240l-240.5,0c-8.8,0 -16,7.2 -16,16c0,8.8 7.2,16 16,16l240.5,0c8.8,0 16,-7.2 16,-16c0,-8.8 -7.2,-16 -16,-16Zm0,124l-240.5,0c-8.8,0 -16,7.2 -16,16c0,8.8 7.2,16 16,16l240.5,0c8.8,0 16,-7.2 16,-16c0,-8.8 -7.2,-16 -16,-16Zm-240.5,-216l240.5,0c8.8,0 16,-7.2 16,-16c0,-8.8 -7.2,-16 -16,-16l-240.5,0c-8.8,0 -16,7.2 -16,16c0,8.8 7.2,16 16,16Z" style="fill-rule:nonzero;"/><g><path d="M439,122.094l0,19.844c8.8,0 16,-4.465 16,-9.922c0,-5.457 -7.2,-9.922 -16,-9.922Z" style="fill-rule:nonzero;"/><g><path d="M395.29,122.731l44.79,20.618c1.638,0.754 4.951,-2.912 7.361,-8.147c2.41,-5.235 3.04,-10.136 1.402,-10.89l-44.79,-20.618c-1.639,-0.754 -4.951,2.912 -7.361,8.147c-2.41,5.235 -3.041,10.136 -1.402,10.89Z" style="fill-rule:nonzero;"/><path d="M404.019,160.473l44.795,-20.603c1.64,-0.754 1.01,-5.655 -1.398,-10.891c-2.408,-5.236 -5.72,-8.903 -7.359,-8.149l-44.795,20.604c-1.639,0.754 -1.01,5.654 1.398,10.89c2.408,5.236 5.72,8.903 7.359,8.149Z" style="fill-rule:nonzero;"/></g></g><g><path d="M439,245.094l0,19.844c8.8,0 16,-4.465 16,-9.922c0,-5.457 -7.2,-9.922 -16,-9.922Z" style="fill-rule:nonzero;"/><g><path d="M395.29,245.731l44.79,20.618c1.638,0.754 4.951,-2.912 7.361,-8.147c2.41,-5.235 3.04,-10.136 1.402,-10.89l-44.79,-20.618c-1.639,-0.754 -4.951,2.912 -7.361,8.147c-2.41,5.235 -3.041,10.136 -1.402,10.89Z" style="fill-rule:nonzero;"/><path d="M404.019,283.473l44.795,-20.603c1.64,-0.754 1.01,-5.655 -1.398,-10.891c-2.408,-5.236 -5.72,-8.903 -7.359,-8.149l-44.795,20.604c-1.639,0.754 -1.01,5.654 1.398,10.89c2.408,5.236 5.72,8.903 7.359,8.149Z" style="fill-rule:nonzero;"/></g></g><g><path d="M439,371.094l0,19.844c8.8,0 16,-4.465 16,-9.922c0,-5.457 -7.2,-9.922 -16,-9.922Z" style="fill-rule:nonzero;"/><g><path d="M395.29,371.731l44.79,20.618c1.638,0.754 4.951,-2.912 7.361,-8.147c2.41,-5.235 3.04,-10.136 1.402,-10.89l-44.79,-20.618c-1.639,-0.754 -4.951,2.912 -7.361,8.147c-2.41,5.235 -3.041,10.136 -1.402,10.89Z" style="fill-rule:nonzero;"/><path d="M404.019,409.473l44.795,-20.603c1.64,-0.754 1.01,-5.655 -1.398,-10.891c-2.408,-5.236 -5.72,-8.903 -7.359,-8.149l-44.795,20.604c-1.639,0.754 -1.01,5.654 1.398,10.89c2.408,5.236 5.72,8.903 7.359,8.149Z" style="fill-rule:nonzero;"/></g></g></svg>