<?xml version="1.0" encoding="UTF-8" standalone="no"?><!DOCTYPE svg PUBLIC "-//W3C//DTD SVG 1.1//EN" "http://www.w3.org/Graphics/SVG/1.1/DTD/svg11.dtd"><svg width="100%" height="100%" viewBox="0 0 512 512" version="1.1" xmlns="http://www.w3.org/2000/svg" xmlns:xlink="http://www.w3.org/1999/xlink" xml:space="preserve" xmlns:serif="http://www.serif.com/" style="fill-rule:evenodd;clip-rule:evenodd;stroke-linejoin:round;stroke-miterlimit:2;"><path d="M286.96,51.699l-147.06,0c-21.375,0 -38.701,17.589 -38.701,39.288l0,330.026c0,21.699 17.326,39.288 38.701,39.288l232.2,0c21.375,0 38.701,-17.589 38.701,-39.288l0,-243.59l-123.841,-125.724Z" style="fill:#fff;fill-rule:nonzero;"/><path d="M288,48l128,128l0,248c0,22.092 -17.908,40 -40,40l-240,0c-22.092,0 -40,-17.908 -40,-40l0,-336c0,-22.092 17.907,-39.999 40,-40l152,0Zm-3,19.5l-137.75,0c-20.021,0 -36.25,16.229 -36.25,36.25l0,304.5c0,20.021 16.229,36.25 36.25,36.25l217.5,0c20.021,0 36.25,-16.229 36.25,-36.25l0,-224.75l-116,-116Z" style="fill-rule:nonzero;"/><rect x="151.561" y="363.816" width="208.877" height="19.97"/><rect x="151.561" y="283.402" width="208.9" height="20"/><rect x="151.561" y="203.828" width="208.9" height="19.96"/></svg>