<?xml version="1.0" encoding="UTF-8" standalone="no"?><!DOCTYPE svg PUBLIC "-//W3C//DTD SVG 1.1//EN" "http://www.w3.org/Graphics/SVG/1.1/DTD/svg11.dtd"><svg width="100%" height="100%" viewBox="0 0 160 127" version="1.1" xmlns="http://www.w3.org/2000/svg" xmlns:xlink="http://www.w3.org/1999/xlink" xml:space="preserve" xmlns:serif="http://www.serif.com/" style="fill-rule:evenodd;clip-rule:evenodd;stroke-linejoin:round;stroke-miterlimit:1.41421;"><path id="path14" d="M160,18.667l-6.328,0c-2.35,0 -5.672,3.389 -5.672,5.559l0,78.641c0,2.172 3.322,5.133 5.672,5.133l6.328,0l0,18.667l-57.334,0l0,-18.667l12,0l0,-82.666l-0.588,0l-28.022,101.333l-21.695,0l-27.661,-101.333l-0.7,0l0,82.666l12,0l0,18.667l-48,0l0,-18.667l6.146,0c2.532,0 5.854,-2.961 5.854,-5.133l0,-78.641c0,-2.17 -3.322,-5.559 -5.854,-5.559l-6.146,0l0,-18.666l60.022,0l19.706,73.333l0.542,0l19.889,-73.333l59.841,0l0,18.666" style="fill:currentColor;fill-rule:nonzero;"/></svg>
