<?xml version="1.0" encoding="UTF-8" standalone="no"?><!DOCTYPE svg PUBLIC "-//W3C//DTD SVG 1.1//EN" "http://www.w3.org/Graphics/SVG/1.1/DTD/svg11.dtd"><svg width="100%" height="100%" viewBox="0 0 512 512" version="1.1" xmlns="http://www.w3.org/2000/svg" xmlns:xlink="http://www.w3.org/1999/xlink" xml:space="preserve" xmlns:serif="http://www.serif.com/" style="fill-rule:evenodd;clip-rule:evenodd;stroke-linejoin:round;stroke-miterlimit:2;"><path d="M404.3,86l-202,202c-1.5,1.5 -2.3,3.5 -2.3,5.6l0,26.5c0,4.4 3.6,7.9 7.9,7.9l26.3,0c2.1,0 4.2,-0.8 5.7,-2.3l202.1,-202c3.1,-3.1 3.1,-8.1 0,-11.2l-26.5,-26.5c-3.1,-3.1 -8.1,-3.1 -11.2,0Zm71.3,-19l-14.4,-14.4l-0.2,-0.2c-3.1,-2.7 -7.2,-4.4 -11.5,-4.4c-4.4,0 -8.5,1.7 -11.6,4.5l-11.3,11.4c-1.5,1.6 -1.5,4.1 0,5.6l32.1,32.1c1.6,1.6 4.1,1.6 5.7,0l11.3,-11.3c2.8,-3.1 4.4,-7.1 4.4,-11.6c-0.1,-4.4 -1.7,-8.6 -4.5,-11.7Z" style="fill-rule:nonzero;"/><g><path d="M347.7,464.1l-256,0c-32.4,0 -58.7,-26.3 -58.7,-58.7l0,-224c0,-32.4 26.3,-58.7 58.7,-58.7l240.9,0c3.5,0.001 5.3,4.3 2.8,6.8l-13.054,13.054l-2.554,0c-0.103,-0.009 -0.208,-0.014 -0.314,-0.014l-212.901,0c-28.634,0.001 -51.877,23.244 -51.877,51.878l0,197.964c0,28.634 23.243,51.878 51.877,51.878l226.246,0c28.634,0 51.877,-23.244 51.877,-51.878l0.002,-183.91l14.898,-14.872c2.5,-2.5 6.8,-0.8 6.8,2.8l0,209c0,32.4 -26.3,58.7 -58.7,58.7Z" style="fill-rule:nonzero;"/></g></svg>