<?xml version="1.0" encoding="UTF-8" standalone="no"?><!DOCTYPE svg PUBLIC "-//W3C//DTD SVG 1.1//EN" "http://www.w3.org/Graphics/SVG/1.1/DTD/svg11.dtd"><svg width="100%" height="100%" viewBox="0 0 512 512" version="1.1" xmlns="http://www.w3.org/2000/svg" xmlns:xlink="http://www.w3.org/1999/xlink" xml:space="preserve" xmlns:serif="http://www.serif.com/" style="fill-rule:evenodd;clip-rule:evenodd;stroke-linejoin:round;stroke-miterlimit:1.41421;"><path d="M432,240l-240.5,0c-8.8,0 -16,7.2 -16,16c0,8.8 7.2,16 16,16l240.5,0c8.8,0 16,-7.2 16,-16c0,-8.8 -7.2,-16 -16,-16Zm0,124l-240.5,0c-8.8,0 -16,7.2 -16,16c0,8.8 7.2,16 16,16l240.5,0c8.8,0 16,-7.2 16,-16c0,-8.8 -7.2,-16 -16,-16Zm-240.5,-216l240.5,0c8.8,0 16,-7.2 16,-16c0,-8.8 -7.2,-16 -16,-16l-240.5,0c-8.8,0 -16,7.2 -16,16c0,8.8 7.2,16 16,16Z" style="fill-rule:nonzero;"/><text x="67.008px" y="165.848px" style="font-family:'Lato-Regular', 'Lato', sans-serif;font-size:96px;">1</text><text x="67.008px" y="290.848px" style="font-family:'Lato-Regular', 'Lato', sans-serif;font-size:96px;">2</text><text x="67.008px" y="414.848px" style="font-family:'Lato-Regular', 'Lato', sans-serif;font-size:96px;">3</text></svg>