<?xml version="1.0" encoding="UTF-8" standalone="no"?>
<!DOCTYPE svg PUBLIC "-//W3C//DTD SVG 1.1//EN" "http://www.w3.org/Graphics/SVG/1.1/DTD/svg11.dtd">
<svg width="100%" height="100%" viewBox="0 0 929 736" version="1.1" xmlns="http://www.w3.org/2000/svg" xmlns:xlink="http://www.w3.org/1999/xlink" xml:space="preserve" xmlns:serif="http://www.serif.com/" style="fill-rule:evenodd;clip-rule:evenodd;stroke-linecap:round;stroke-linejoin:round;">
    <g transform="matrix(1.06354,0,0,1.06354,0,11.6599)">
        <g transform="matrix(0.833691,0,0,0.889579,3.49169,2.76691)">
            <rect x="0" y="0" width="690.542" height="402.374" style="fill:url(#_Linear1);"/>
        </g>
        <g transform="matrix(0.843804,0,0,0.910452,0,0)">
            <rect x="9.296" y="6.64" width="673.279" height="20.583" style="fill:rgb(245,245,245);"/>
        </g>
        <g transform="matrix(0.843804,0,0,0.910452,0,0)">
            <rect x="9.296" y="27.223" width="673.279" height="364.527" style="fill:white;"/>
        </g>
        <g transform="matrix(0.843804,0,0,0.910452,0,0)">
            <circle cx="24.7" cy="16.6" r="5.843" style="fill:url(#_Linear2);"/>
        </g>
        <g transform="matrix(0.843804,0,0,0.910452,0,0)">
            <circle cx="37.98" cy="16.6" r="5.843" style="fill:url(#_Linear3);"/>
        </g>
        <g transform="matrix(0.843804,0,0,0.910452,0,0)">
            <circle cx="51.259" cy="16.6" r="5.843" style="fill:url(#_Linear4);"/>
        </g>
        <g transform="matrix(0.843804,0,0,0.910452,0,0)">
            <rect x="154.463" y="55.933" width="396.153" height="196.013" style="fill:url(#_Linear5);"/>
        </g>
        <g transform="matrix(0.843804,0,0,0.910452,0,0)">
            <rect x="158.59" y="60.059" width="387.9" height="185.697" style="fill:rgb(56,128,255);"/>
        </g>
        <g transform="matrix(0.843804,0,0,0.910452,0,0)">
            <path d="M179.223,84.819L179.223,218.933" style="fill:none;fill-rule:nonzero;stroke:white;stroke-opacity:0.6;stroke-width:1px;stroke-dasharray:0,4;"/>
        </g>
        <g transform="matrix(0.843804,0,0,0.910452,0,0)">
            <path d="M178.191,228.218L520.699,228.218" style="fill:none;fill-rule:nonzero;stroke:white;stroke-opacity:0.6;stroke-width:1px;"/>
        </g>
        <g transform="matrix(0.843804,0,0,0.910452,0,0)">
            <path d="M217.394,92.04L483.559,92.04" style="fill:none;fill-rule:nonzero;stroke:white;stroke-opacity:0.3;stroke-width:1px;"/>
        </g>
        <g transform="matrix(0.843804,0,0,0.910452,0,0)">
            <path d="M217.394,122.99L483.559,122.99" style="fill:none;fill-rule:nonzero;stroke:white;stroke-opacity:0.3;stroke-width:1px;"/>
        </g>
        <g transform="matrix(0.843804,0,0,0.910452,0,0)">
            <path d="M217.394,153.939L483.559,153.939" style="fill:none;fill-rule:nonzero;stroke:white;stroke-opacity:0.3;stroke-width:1px;"/>
        </g>
        <g transform="matrix(0.843804,0,0,0.910452,0,0)">
            <path d="M217.394,184.889L483.559,184.889" style="fill:none;fill-rule:nonzero;stroke:white;stroke-opacity:0.3;stroke-width:1px;"/>
        </g>
        <g transform="matrix(0.843804,0,0,0.910452,-124.039,-97.6958)">
            <path d="M381.932,335.523L381.932,261.244C381.932,261.244 375.742,229.263 438.673,230.294C495.906,222.174 495.906,198.55 495.906,198.55C495.906,198.55 548.542,192.824 551.212,248.828C551.595,258.175 556.257,266.844 563.844,272.317C585.531,287.611 604.363,257.136 613.021,230.294L613.021,335.523L381.932,335.523Z" style="fill:white;fill-opacity:0.2;fill-rule:nonzero;"/>
        </g>
        <g transform="matrix(0.843804,0,0,0.910452,0,0)">
            <circle cx="286.514" cy="121.958" r="8.253" style="fill:rgb(56,128,255);"/>
        </g>
        <g transform="matrix(0.843804,0,0,0.910452,0,0)">
            <circle cx="286.514" cy="121.958" r="8.253" style="fill:white;fill-opacity:0.5;"/>
        </g>
        <g transform="matrix(0.843804,0,0,0.910452,0,0)">
            <circle cx="234.932" cy="154.971" r="10.316" style="fill:url(#_Linear6);"/>
        </g>
        <g transform="matrix(0.843804,0,0,0.910452,0,0)">
            <circle cx="286.514" cy="121.958" r="10.316" style="fill:url(#_Linear7);"/>
        </g>
        <g transform="matrix(0.843804,0,0,0.910452,0,0)">
            <circle cx="349.246" cy="92.826" r="10.316" style="fill:url(#_Linear8);"/>
        </g>
        <g transform="matrix(0.843804,0,0,0.910452,0,0)">
            <circle cx="406.186" cy="154.971" r="10.316" style="fill:url(#_Linear9);"/>
        </g>
        <g transform="matrix(0.843804,0,0,0.910452,0,0)">
            <circle cx="466.021" cy="126.085" r="10.316" style="fill:url(#_Linear10);"/>
        </g>
        <g transform="matrix(0.843804,0,0,0.910452,0,0)">
            <circle cx="234.932" cy="154.971" r="8.253" style="fill:rgb(56,128,255);"/>
        </g>
        <g transform="matrix(0.843804,0,0,0.910452,0,0)">
            <circle cx="234.932" cy="154.971" r="8.253" style="fill-opacity:0.2;"/>
        </g>
        <g transform="matrix(0.843804,0,0,0.910452,0,0)">
            <circle cx="349.246" cy="92.826" r="8.253" style="fill:rgb(56,128,255);"/>
        </g>
        <g transform="matrix(0.843804,0,0,0.910452,0,0)">
            <circle cx="349.246" cy="92.826" r="8.253" style="fill-opacity:0.2;"/>
        </g>
        <g transform="matrix(0.843804,0,0,0.910452,0,0)">
            <circle cx="406.186" cy="154.971" r="8.253" style="fill:rgb(56,128,255);"/>
        </g>
        <g transform="matrix(0.843804,0,0,0.910452,0,0)">
            <circle cx="406.186" cy="154.971" r="8.253" style="fill:white;fill-opacity:0.5;"/>
        </g>
        <g transform="matrix(0.843804,0,0,0.910452,0,0)">
            <circle cx="466.021" cy="126.085" r="8.253" style="fill:rgb(56,128,255);"/>
        </g>
        <g transform="matrix(0.843804,0,0,0.910452,50.4813,-26.2582)">
            <circle cx="406.186" cy="154.971" r="8.253" style="fill:white;fill-opacity:0.5;"/>
        </g>
        <g transform="matrix(0.843804,0,0,0.910452,0,0)">
            <rect x="156.281" y="274.784" width="392.519" height="12.721" style="fill:url(#_Linear11);"/>
        </g>
        <g transform="matrix(0.843804,0,0,0.910452,0,0)">
            <rect x="156.281" y="292.956" width="392.519" height="12.721" style="fill:url(#_Linear12);"/>
        </g>
        <g transform="matrix(0.843804,0,0,0.910452,0,0)">
            <rect x="156.281" y="311.128" width="392.519" height="12.721" style="fill:url(#_Linear13);"/>
        </g>
        <g transform="matrix(0.843804,0,0,0.910452,0,0)">
            <rect x="156.281" y="329.301" width="392.519" height="12.721" style="fill:url(#_Linear14);"/>
        </g>
        <g transform="matrix(0.843804,0,0,0.910452,0,0)">
            <rect x="158.098" y="276.601" width="388.884" height="9.086" style="fill:rgb(224,224,224);"/>
        </g>
        <g transform="matrix(0.843804,0,0,0.910452,0,0)">
            <rect x="158.098" y="294.773" width="388.884" height="9.086" style="fill:rgb(224,224,224);"/>
        </g>
        <g transform="matrix(0.843804,0,0,0.910452,0,0)">
            <rect x="158.098" y="312.946" width="388.884" height="9.086" style="fill:rgb(224,224,224);"/>
        </g>
        <g transform="matrix(0.843804,0,0,0.910452,0,0)">
            <rect x="158.098" y="331.118" width="388.884" height="9.086" style="fill:rgb(224,224,224);"/>
        </g>
        <g transform="matrix(0.843804,0,0,0.910452,-124.039,-97.6958)">
            <path d="M905.153,150.62C905.153,150.62 907.128,157.205 895.935,163.13C884.742,169.056 881.45,191.442 894.618,198.027C907.786,204.611 911.737,213.17 905.153,219.096C898.569,225.022 886.717,240.824 902.519,244.774C918.321,248.725 920.296,256.626 915.688,259.918C911.079,263.21 926.222,253.992 926.222,253.992C926.222,253.992 928.856,269.794 942.683,265.844C956.51,261.893 995.356,186.833 975.604,176.299C955.851,165.764 905.153,150.62 905.153,150.62Z" style="fill:rgb(47,46,65);fill-rule:nonzero;"/>
        </g>
        <g transform="matrix(0.843804,0,0,0.910452,0,0)">
            <path d="M809.169,601.511L804.889,641.464L823.438,652.879L840.561,650.025L832,601.511L809.169,601.511Z" style="fill:rgb(159,97,106);fill-rule:nonzero;"/>
        </g>
        <g transform="matrix(0.843804,0,0,0.910452,0,0)">
            <circle cx="794.901" cy="82.122" r="39.953" style="fill:rgb(159,97,106);"/>
        </g>
        <g transform="matrix(0.843804,0,0,0.910452,-124.039,-97.6958)">
            <path d="M928.345,208.69C928.345,208.69 924.778,269.333 920.497,269.333C916.216,269.333 970.438,266.479 970.438,266.479C970.438,266.479 947.608,226.526 959.023,213.684C970.438,200.842 928.345,208.69 928.345,208.69Z" style="fill:rgb(159,97,106);fill-rule:nonzero;"/>
        </g>
        <g transform="matrix(0.843804,0,0,0.910452,0,0)">
            <path d="M840.561,421.723L822.012,493.067L836.28,614.353L803.462,611.499L790.62,421.723L840.561,421.723Z" style="fill:rgb(34,36,40);fill-rule:nonzero;"/>
        </g>
        <g transform="matrix(0.843804,0,0,0.910452,0,0)">
            <path d="M840.561,421.723L822.012,493.067L836.28,614.353L803.462,611.499L790.62,421.723L840.561,421.723Z" style="fill:rgb(34,36,40);fill-opacity:0.2;fill-rule:nonzero;"/>
        </g>
        <g transform="matrix(0.843804,0,0,0.910452,-124.039,-97.6958)">
            <path d="M959.023,741.634C959.023,741.634 957.596,733.073 943.327,741.634C929.059,750.196 869.129,777.307 900.521,783.014C931.912,788.722 996.123,775.88 996.123,771.599C996.123,767.318 997.549,740.208 991.842,743.061C986.134,745.915 967.585,764.465 959.023,741.634Z" style="fill:rgb(34,36,40);fill-rule:nonzero;"/>
        </g>
        <g transform="matrix(0.843804,0,0,0.910452,-124.039,-97.6958)">
            <path d="M977.573,731.646C977.573,731.646 1000.4,767.318 1001.83,777.307C1003.26,787.295 1024.66,754.476 1024.66,754.476L1004.68,717.377L977.573,731.646Z" style="fill:rgb(159,97,106);fill-rule:nonzero;"/>
        </g>
        <g transform="matrix(0.843804,0,0,0.910452,-124.039,-97.6958)">
            <path d="M901.948,534.735L927.632,620.348C927.632,620.348 973.292,741.634 976.146,740.207C979,738.781 1013.25,730.219 1014.67,725.939C1016.1,721.658 971.865,606.08 971.865,606.08L966.158,531.881L901.948,534.735Z" style="fill:rgb(34,36,40);fill-rule:nonzero;"/>
        </g>
        <g transform="matrix(0.843804,0,0,0.910452,-124.039,-97.6958)">
            <path d="M1028.94,748.769C1020.97,748.22 1013.49,752.824 1010.39,760.184C1004.68,773.026 997.549,774.453 996.122,775.88C994.696,777.307 1000.4,807.271 996.122,810.125C991.842,812.979 987.561,842.944 1001.83,842.944C1016.1,842.944 1038.93,827.248 1037.5,824.394C1036.08,821.54 1036.08,801.564 1040.36,793.003C1044.64,784.441 1051.77,770.172 1040.36,761.611C1028.94,753.05 1028.94,748.769 1028.94,748.769Z" style="fill:rgb(34,36,40);fill-rule:nonzero;"/>
        </g>
        <g transform="matrix(0.843804,0,0,0.910452,-124.039,-97.6958)">
            <path d="M893.386,402.034L890.532,427.718C890.532,427.718 869.129,449.121 861.995,474.805C854.86,500.489 796.357,543.296 813.48,549.004C830.603,554.711 850.579,557.565 900.521,549.004C950.462,540.442 1028.94,558.992 1028.94,511.905C1028.94,511.905 1038.93,499.063 1046.06,517.612C1051.09,530.282 1056.81,542.667 1063.19,554.711C1069.57,566.756 1080.31,524.747 1074.6,511.905C1068.89,499.063 1074.6,500.489 1067.47,486.221C1060.33,471.952 1024.66,419.157 1010.39,416.303C996.122,413.449 969.011,376.35 970.438,372.069C971.865,367.788 893.386,402.034 893.386,402.034Z" style="fill:rgb(180,180,180);fill-rule:nonzero;"/>
        </g>
        <g transform="matrix(0.843804,0,0,0.910452,-124.039,-97.6958)">
            <path d="M970.438,242.222C970.438,242.222 911.936,255.064 909.082,263.625C907.477,268.441 900.002,277.32 893.769,284.167C883.248,295.555 876.251,309.752 873.63,325.032C872.142,334.136 878.398,342.321 881.258,352.806C889.819,384.198 896.24,376.35 887.679,399.18C879.117,422.01 930.485,430.572 950.462,420.583C970.438,410.595 992.555,351.379 992.555,344.245C992.555,337.11 1011.82,256.491 996.122,250.783C980.427,245.075 970.438,242.222 970.438,242.222Z" style="fill:rgb(110,109,111);fill-rule:nonzero;"/>
        </g>
        <g transform="matrix(0.843804,0,0,0.910452,-124.039,-97.6958)">
            <path d="M889.106,310.713L871.983,386.338L815.621,411.309C815.621,411.309 772.814,401.32 771.387,417.016C770.455,427.263 819.901,431.285 819.901,431.285L901.948,399.18L920.497,329.262L889.106,310.713Z" style="fill:rgb(159,97,106);fill-rule:nonzero;"/>
        </g>
        <g transform="matrix(0.843804,0,0,0.910452,-124.039,-97.6958)">
            <path d="M909.082,282.175C909.082,282.175 873.41,303.578 881.971,314.993C890.532,326.409 911.936,344.958 917.643,344.958C923.351,344.958 927.632,310.713 927.632,300.724C927.632,290.736 909.082,282.175 909.082,282.175Z" style="fill:rgb(110,109,111);fill-rule:nonzero;"/>
        </g>
        <g transform="matrix(0.843804,0,0,0.910452,-124.039,-97.6958)">
            <path d="M944.775,137.546C944.775,137.546 946.963,144.84 934.563,151.404C922.164,157.969 918.517,182.768 933.105,190.062C947.693,197.356 952.069,206.839 944.775,213.403C937.481,219.968 924.352,237.473 941.857,241.85C959.363,246.226 961.551,254.979 956.445,258.626C951.34,262.273 968.116,252.061 968.116,252.061C968.116,252.061 971.033,269.567 986.351,265.19C1001.67,260.814 1016.95,181.262 999.877,160.772C984,141.721 944.775,137.546 944.775,137.546Z" style="fill:rgb(47,46,65);fill-rule:nonzero;"/>
        </g>
        <g transform="matrix(0.843804,0,0,0.910452,-124.039,-97.6958)">
            <path d="M940.116,130.038C940.119,119.352 972.089,127.03 985.796,141.95C995.288,152.282 1009.71,167.827 997.624,178.784C985.543,189.741 1018.33,204.104 1027.13,208.459C1035.92,212.814 1053.28,226.131 1037.61,235.066C1021.93,244 1022.18,253.018 1028.08,255.154C1033.98,257.289 1015.07,251.979 1015.07,251.979C1015.07,251.979 1016.98,269.623 1001.05,269.538C985.123,269.454 939.421,181.907 950.339,157.572C960.49,134.946 940.116,130.038 940.116,130.038Z" style="fill:rgb(47,46,65);fill-rule:nonzero;"/>
        </g>
        <g transform="matrix(0.843804,0,0,0.910452,-124.039,-97.6958)">
            <path d="M947.04,127.696C904.288,125.122 899.997,157.303 899.997,157.303C900.293,175.927 929.868,166.852 938.082,169.629C947.992,162.5 967.094,149.011 980.755,139.385C970.838,132.402 959.152,128.35 947.04,127.696Z" style="fill:rgb(47,46,65);fill-rule:nonzero;"/>
        </g>
    </g>
    <defs>
        <linearGradient id="_Linear1" x1="0" y1="0" x2="1" y2="0" gradientUnits="userSpaceOnUse" gradientTransform="matrix(2.46383e-14,-402.374,402.374,2.46383e-14,345.271,402.374)"><stop offset="0" style="stop-color:rgb(128,128,128);stop-opacity:0.25"/><stop offset="0.54" style="stop-color:rgb(128,128,128);stop-opacity:0.12"/><stop offset="1" style="stop-color:rgb(128,128,128);stop-opacity:0.1"/></linearGradient>
        <linearGradient id="_Linear2" x1="0" y1="0" x2="1" y2="0" gradientUnits="userSpaceOnUse" gradientTransform="matrix(8.36219e-15,-136.565,136.565,8.36219e-15,307.506,273.023)"><stop offset="0" style="stop-color:rgb(128,128,128);stop-opacity:0.25"/><stop offset="0.54" style="stop-color:rgb(128,128,128);stop-opacity:0.12"/><stop offset="1" style="stop-color:rgb(128,128,128);stop-opacity:0.1"/></linearGradient>
        <linearGradient id="_Linear3" x1="0" y1="0" x2="1" y2="0" gradientUnits="userSpaceOnUse" gradientTransform="matrix(8.36219e-15,-136.565,136.565,8.36219e-15,475.973,273.023)"><stop offset="0" style="stop-color:rgb(128,128,128);stop-opacity:0.25"/><stop offset="0.54" style="stop-color:rgb(128,128,128);stop-opacity:0.12"/><stop offset="1" style="stop-color:rgb(128,128,128);stop-opacity:0.1"/></linearGradient>
        <linearGradient id="_Linear4" x1="0" y1="0" x2="1" y2="0" gradientUnits="userSpaceOnUse" gradientTransform="matrix(8.36219e-15,-136.565,136.565,8.36219e-15,644.44,273.023)"><stop offset="0" style="stop-color:rgb(128,128,128);stop-opacity:0.25"/><stop offset="0.54" style="stop-color:rgb(128,128,128);stop-opacity:0.12"/><stop offset="1" style="stop-color:rgb(128,128,128);stop-opacity:0.1"/></linearGradient>
        <linearGradient id="_Linear5" x1="0" y1="0" x2="1" y2="0" gradientUnits="userSpaceOnUse" gradientTransform="matrix(2.35262e-12,-38421.2,38421.2,2.35262e-12,139814,49440.6)"><stop offset="0" style="stop-color:rgb(128,128,128);stop-opacity:0.25"/><stop offset="0.54" style="stop-color:rgb(128,128,128);stop-opacity:0.12"/><stop offset="1" style="stop-color:rgb(128,128,128);stop-opacity:0.1"/></linearGradient>
        <linearGradient id="_Linear6" x1="0" y1="0" x2="1" y2="0" gradientUnits="userSpaceOnUse" gradientTransform="matrix(2.60678e-14,-425.72,425.72,2.60678e-14,5071.96,3555.02)"><stop offset="0" style="stop-color:rgb(128,128,128);stop-opacity:0.25"/><stop offset="0.54" style="stop-color:rgb(128,128,128);stop-opacity:0.12"/><stop offset="1" style="stop-color:rgb(128,128,128);stop-opacity:0.1"/></linearGradient>
        <linearGradient id="_Linear7" x1="0" y1="0" x2="1" y2="0" gradientUnits="userSpaceOnUse" gradientTransform="matrix(2.60678e-14,-425.72,425.72,2.60678e-14,6187.84,2840.86)"><stop offset="0" style="stop-color:rgb(128,128,128);stop-opacity:0.25"/><stop offset="0.54" style="stop-color:rgb(128,128,128);stop-opacity:0.12"/><stop offset="1" style="stop-color:rgb(128,128,128);stop-opacity:0.1"/></linearGradient>
        <linearGradient id="_Linear8" x1="0" y1="0" x2="1" y2="0" gradientUnits="userSpaceOnUse" gradientTransform="matrix(2.60678e-14,-425.72,425.72,2.60678e-14,7544.92,2210.64)"><stop offset="0" style="stop-color:rgb(128,128,128);stop-opacity:0.25"/><stop offset="0.54" style="stop-color:rgb(128,128,128);stop-opacity:0.12"/><stop offset="1" style="stop-color:rgb(128,128,128);stop-opacity:0.1"/></linearGradient>
        <linearGradient id="_Linear9" x1="0" y1="0" x2="1" y2="0" gradientUnits="userSpaceOnUse" gradientTransform="matrix(2.60678e-14,-425.72,425.72,2.60678e-14,8776.69,3555.02)"><stop offset="0" style="stop-color:rgb(128,128,128);stop-opacity:0.25"/><stop offset="0.54" style="stop-color:rgb(128,128,128);stop-opacity:0.12"/><stop offset="1" style="stop-color:rgb(128,128,128);stop-opacity:0.1"/></linearGradient>
        <linearGradient id="_Linear10" x1="0" y1="0" x2="1" y2="0" gradientUnits="userSpaceOnUse" gradientTransform="matrix(2.60678e-14,-425.72,425.72,2.60678e-14,10071.1,2930.13)"><stop offset="0" style="stop-color:rgb(128,128,128);stop-opacity:0.25"/><stop offset="0.54" style="stop-color:rgb(128,128,128);stop-opacity:0.12"/><stop offset="1" style="stop-color:rgb(128,128,128);stop-opacity:0.1"/></linearGradient>
        <linearGradient id="_Linear11" x1="0" y1="0" x2="1" y2="0" gradientUnits="userSpaceOnUse" gradientTransform="matrix(9.90809e-15,-161.811,161.811,9.90809e-15,138535,3931.99)"><stop offset="0" style="stop-color:rgb(128,128,128);stop-opacity:0.25"/><stop offset="0.54" style="stop-color:rgb(128,128,128);stop-opacity:0.12"/><stop offset="1" style="stop-color:rgb(128,128,128);stop-opacity:0.1"/></linearGradient>
        <linearGradient id="_Linear12" x1="0" y1="0" x2="1" y2="0" gradientUnits="userSpaceOnUse" gradientTransform="matrix(9.90809e-15,-161.811,161.811,9.90809e-15,138535,4181.32)"><stop offset="0" style="stop-color:rgb(128,128,128);stop-opacity:0.25"/><stop offset="0.54" style="stop-color:rgb(128,128,128);stop-opacity:0.12"/><stop offset="1" style="stop-color:rgb(128,128,128);stop-opacity:0.1"/></linearGradient>
        <linearGradient id="_Linear13" x1="0" y1="0" x2="1" y2="0" gradientUnits="userSpaceOnUse" gradientTransform="matrix(9.90809e-15,-161.811,161.811,9.90809e-15,138535,4430.65)"><stop offset="0" style="stop-color:rgb(128,128,128);stop-opacity:0.25"/><stop offset="0.54" style="stop-color:rgb(128,128,128);stop-opacity:0.12"/><stop offset="1" style="stop-color:rgb(128,128,128);stop-opacity:0.1"/></linearGradient>
        <linearGradient id="_Linear14" x1="0" y1="0" x2="1" y2="0" gradientUnits="userSpaceOnUse" gradientTransform="matrix(9.90809e-15,-161.811,161.811,9.90809e-15,138535,4679.98)"><stop offset="0" style="stop-color:rgb(128,128,128);stop-opacity:0.25"/><stop offset="0.54" style="stop-color:rgb(128,128,128);stop-opacity:0.12"/><stop offset="1" style="stop-color:rgb(128,128,128);stop-opacity:0.1"/></linearGradient>
    </defs>
</svg>
