<?xml version="1.0" encoding="UTF-8" standalone="no"?>
<!DOCTYPE svg PUBLIC "-//W3C//DTD SVG 1.1//EN" "http://www.w3.org/Graphics/SVG/1.1/DTD/svg11.dtd">
<svg width="100%" height="100%" viewBox="0 0 1240 655" version="1.1" xmlns="http://www.w3.org/2000/svg" xmlns:xlink="http://www.w3.org/1999/xlink" xml:space="preserve" xmlns:serif="http://www.serif.com/" style="fill-rule:evenodd;clip-rule:evenodd;stroke-linejoin:round;stroke-miterlimit:2;">
    <g transform="matrix(0.882577,0,0,0.882577,3.14828,38.6573)">
        <circle cx="246.827" cy="521.765" r="59.243" style="fill:rgb(242,242,242);"/>
        <circle cx="256.46" cy="513.095" r="59.243" style="fill:rgb(110,109,111);"/>
        <rect x="304.171" y="447.543" width="733" height="2" style="fill:rgb(63,61,86);"/>
        <g transform="matrix(1,0,0,1,-30.4146,-122.728)">
            <path d="M714.207,141.381L74.825,141.381C65.17,141.381 57.226,149.325 57.226,158.979L57.226,515.231C57.226,524.886 65.17,532.83 74.825,532.83L714.207,532.83C723.862,532.83 731.806,524.886 731.806,515.231L731.806,158.979C731.806,149.325 723.862,141.381 714.207,141.381Z" style="fill:rgb(34,36,40);fill-rule:nonzero;"/>
        </g>
        <g transform="matrix(1,0,0,1,0,-12.3335)">
            <rect x="50.406" y="49.754" width="627.391" height="353.913" style="fill:rgb(56,128,255);"/>
        </g>
        <g transform="matrix(1,0,0,1,0,-12.3335)">
            <path d="M498.374,403.667L50.406,403.667L50.406,49.754L498.374,403.667Z" style="fill-opacity:0.1;fill-rule:nonzero;"/>
        </g>
        <g transform="matrix(1,0,0,1,0,-12.3335)">
            <circle cx="148.574" cy="316.876" r="60.307" style="fill:rgb(242,242,242);"/>
        </g>
        <g transform="matrix(1,0,0,1,0,-12.3335)">
            <rect x="509.953" y="240.622" width="58.605" height="12.246" style="fill:rgb(34,36,40);"/>
        </g>
        <g transform="matrix(1,0,0,1,0,-12.3335)">
            <rect x="439.102" y="145.279" width="200.307" height="5.248" style="fill:rgb(34,36,40);"/>
        </g>
        <g transform="matrix(1,0,0,1,0,-12.3335)">
            <rect x="439.102" y="161.898" width="200.307" height="5.248" style="fill:rgb(34,36,40);"/>
        </g>
        <g transform="matrix(1,0,0,1,0,-12.3335)">
            <rect x="439.102" y="178.518" width="200.307" height="5.248" style="fill:rgb(34,36,40);"/>
        </g>
        <g transform="matrix(1,0,0,1,0,-12.3335)">
            <rect x="439.102" y="195.137" width="200.307" height="5.248" style="fill:rgb(34,36,40);"/>
        </g>
        <g transform="matrix(1,0,0,1,0,-12.3335)">
            <rect x="439.102" y="211.756" width="200.307" height="5.248" style="fill:rgb(34,36,40);"/>
        </g>
        <g transform="matrix(1,0,0,1,0,-12.3335)">
            <rect x="614.917" y="56.934" width="24.492" height="24.492" style="fill:rgb(242,242,242);"/>
        </g>
        <g transform="matrix(1,0,0,1,-30.4146,-135.061)">
            <path d="M681.195,215.525L651.455,215.525L651.455,185.785L681.195,185.785L681.195,215.525ZM652.748,214.232L679.902,214.232L679.902,187.078L652.748,187.078L652.748,214.232Z" style="fill:rgb(34,36,40);fill-rule:nonzero;"/>
        </g>
        <g transform="matrix(1,0,0,1,-30.4146,-135.061)">
            <path d="M193.586,477.272C151.894,477.272 117.586,442.964 117.586,401.272C117.586,359.579 151.894,325.272 193.586,325.272C235.278,325.272 269.586,359.579 269.586,401.272C269.539,442.946 235.26,477.224 193.586,477.272ZM193.586,327.272C152.991,327.272 119.586,360.676 119.586,401.272C119.586,441.867 152.991,475.272 193.586,475.272C234.181,475.272 267.586,441.867 267.586,401.272C267.54,360.694 234.164,327.318 193.586,327.272Z" style="fill:rgb(63,61,86);fill-rule:nonzero;"/>
        </g>
        <rect x="586.171" y="32.543" width="255" height="2" style="fill:rgb(63,61,86);"/>
        <rect x="406.171" y="560.543" width="733" height="2" style="fill:rgb(63,61,86);"/>
        <rect x="192.672" y="652.543" width="255" height="2" style="fill:rgb(63,61,86);"/>
        <rect x="471" y="550" width="28" height="28" style="fill:rgb(110,109,111);"/>
        <g transform="matrix(1,0,0,1,-30.4146,-122.728)">
            <path d="M546.415,684.728L512.415,684.728L512.415,650.728L546.415,650.728L546.415,684.728ZM513.893,683.25L544.936,683.25L544.936,652.207L513.893,652.207L513.893,683.25Z" style="fill:rgb(34,36,40);fill-rule:nonzero;"/>
        </g>
        <rect x="796" y="22" width="28" height="28" style="fill:rgb(110,109,111);"/>
        <g transform="matrix(1,0,0,1,-30.4146,-122.728)">
            <path d="M871.415,156.728L837.415,156.728L837.415,122.728L871.415,122.728L871.415,156.728ZM838.893,155.25L869.936,155.25L869.936,124.207L838.893,124.207L838.893,155.25Z" style="fill:rgb(34,36,40);fill-rule:nonzero;"/>
        </g>
        <rect x="1078" y="550" width="28" height="28" style="fill:rgb(110,109,111);"/>
        <g transform="matrix(1,0,0,1,-30.4146,-122.728)">
            <path d="M1153.41,684.728L1119.41,684.728L1119.41,650.728L1153.41,650.728L1153.41,684.728ZM1120.89,683.25L1151.94,683.25L1151.94,652.207L1120.89,652.207L1120.89,683.25Z" style="fill:rgb(34,36,40);fill-rule:nonzero;"/>
        </g>
        <g transform="matrix(1,0,0,1,-30.4146,-122.728)">
            <path d="M1087.59,354.687L1085.21,354.687L1085.21,289.525C1085.21,268.836 1068.18,251.811 1047.49,251.811L909.44,251.811C888.751,251.811 871.726,268.836 871.726,289.525L871.726,647.006C871.726,667.696 888.751,684.72 909.44,684.72L1047.49,684.72C1068.18,684.72 1085.21,667.696 1085.21,647.006L1085.21,401.07L1087.59,401.07L1087.59,354.687Z" style="fill:rgb(34,36,40);fill-rule:nonzero;"/>
        </g>
        <g transform="matrix(1,0,0,1,-30.4146,-122.728)">
            <path d="M1077.18,291.742L1077.18,648.702C1077.18,664.152 1064.47,676.869 1049.02,676.872L910.296,676.872C894.845,676.869 882.133,664.152 882.136,648.702L882.136,291.742C882.138,276.294 894.849,263.583 910.296,263.582L927.126,263.582C926.472,265.185 926.136,266.901 926.136,268.632C926.136,275.972 932.176,282.012 939.515,282.012L1018.61,282.012C1025.95,282.012 1031.99,275.972 1031.99,268.633C1031.99,266.901 1031.65,265.185 1031,263.582L1049.02,263.582C1064.46,263.583 1077.17,276.294 1077.18,291.742Z" style="fill:rgb(110,109,111);fill-rule:nonzero;"/>
        </g>
        <rect x="928.58" y="376.218" width="41.324" height="12.246" style="fill:rgb(34,36,40);"/>
        <rect x="878.621" y="280.875" width="141.24" height="5.248" style="fill:rgb(34,36,40);"/>
        <rect x="878.621" y="297.494" width="141.24" height="5.248" style="fill:rgb(34,36,40);"/>
        <rect x="878.621" y="314.114" width="141.24" height="5.248" style="fill:rgb(34,36,40);"/>
        <rect x="878.621" y="330.733" width="141.24" height="5.248" style="fill:rgb(34,36,40);"/>
        <rect x="878.621" y="347.352" width="141.24" height="5.248" style="fill:rgb(34,36,40);"/>
        <rect x="929.684" y="211.179" width="24.492" height="24.492" style="fill:rgb(242,242,242);"/>
        <g transform="matrix(1,0,0,1,-30.4146,-122.728)">
            <path d="M969.474,340.032L969.474,369.772L999.214,369.772L999.214,340.032L969.474,340.032ZM997.924,368.482L970.764,368.482L970.764,341.322L997.924,341.322L997.924,368.482Z" style="fill:rgb(63,61,86);fill-rule:nonzero;"/>
        </g>
        <g transform="matrix(1,0,0,1,-30.4146,-122.728)">
            <path d="M1077.18,610.582L1077.18,648.702C1077.18,664.152 1064.47,676.869 1049.02,676.872L910.296,676.872C894.845,676.869 882.133,664.152 882.136,648.702L882.136,456.492L999.006,548.822L1001.01,550.402L1022.75,567.572L1024.78,569.182L1077.18,610.582Z" style="fill-opacity:0.1;fill-rule:nonzero;"/>
        </g>
        <circle cx="937.241" cy="498.707" r="43.868" style="fill:rgb(242,242,242);"/>
        <g transform="matrix(1,0,0,1,-30.4146,-122.728)">
            <path d="M350.586,777.272C302.859,777.272 263.586,737.998 263.586,690.272C263.586,642.545 302.859,603.272 350.586,603.272C398.313,603.272 437.586,642.545 437.586,690.272C437.532,737.978 398.292,777.218 350.586,777.272ZM350.586,605.272C303.956,605.272 265.586,643.642 265.586,690.272C265.586,736.901 303.956,775.272 350.586,775.272C397.216,775.272 435.586,736.901 435.586,690.272C435.533,643.662 397.196,605.324 350.586,605.272Z" style="fill:rgb(63,61,86);fill-rule:nonzero;"/>
        </g>
        <g transform="matrix(1,0,0,1,-30.4146,-122.728)">
            <path d="M980.586,655.272C950.414,655.272 925.586,630.444 925.586,600.272C925.586,570.1 950.414,545.272 980.586,545.272C1010.76,545.272 1035.59,570.1 1035.59,600.272C1035.55,630.431 1010.75,655.238 980.586,655.272ZM980.586,547.272C951.511,547.272 927.586,571.197 927.586,600.272C927.586,629.347 951.511,653.272 980.586,653.272C1009.66,653.272 1033.59,629.347 1033.59,600.272C1033.55,571.209 1009.65,547.304 980.586,547.272Z" style="fill:rgb(63,61,86);fill-rule:nonzero;"/>
        </g>
    </g>
</svg>
