<?xml version="1.0" encoding="UTF-8" standalone="no"?>
<!DOCTYPE svg PUBLIC "-//W3C//DTD SVG 1.1//EN" "http://www.w3.org/Graphics/SVG/1.1/DTD/svg11.dtd">
<svg width="100%" height="100%" viewBox="0 0 1200 783" version="1.1" xmlns="http://www.w3.org/2000/svg" xmlns:xlink="http://www.w3.org/1999/xlink" xml:space="preserve" xmlns:serif="http://www.serif.com/" style="fill-rule:evenodd;clip-rule:evenodd;stroke-linecap:round;stroke-linejoin:round;stroke-miterlimit:1.5;">
    <g transform="matrix(1.88273,0,0,1.62662,-11.8715,-157.23)">
        <ellipse cx="210.106" cy="298.005" rx="173.146" ry="199.296" style="fill:none;stroke:rgb(110,109,111);stroke-width:1.14px;stroke-dasharray:9.09,9.09,0,0;"/>
    </g>
    <ellipse cx="867" cy="757.454" rx="154.5" ry="25.5" style="fill:rgb(110,109,111);"/>
    <g transform="matrix(1,0,0,1,-89.25,-58.523)">
        <path d="M1086.93,722.093C1086.62,776.877 1053.95,795.823 1013.78,795.601C1012.84,795.595 1011.92,795.58 1010.99,795.554C1009.13,795.503 1007.29,795.408 1005.47,795.269C969.223,792.501 941.163,772.237 941.445,721.287C941.737,668.561 1009.49,602.394 1014.58,597.502L1014.58,597.498C1014.78,597.311 1014.88,597.218 1014.88,597.218C1014.88,597.218 1087.23,667.313 1086.93,722.093Z" style="fill:rgb(110,109,111);fill-rule:nonzero;"/>
    </g>
    <g transform="matrix(1,0,0,1,-89.25,-58.523)">
        <path d="M1011.18,787.206L1037.99,750.181L1011.09,791.286L1010.99,795.554C1009.13,795.503 1007.29,795.408 1005.47,795.269L1008.63,740.478L1008.62,740.054L1008.67,739.974L1008.97,734.796L982.457,693.293L1009.07,730.917L1009.13,732.016L1011.52,690.619L988.87,647.757L1011.85,683.343L1014.58,597.502L1014.59,597.217L1014.58,597.498L1013.83,665.201L1036.77,638.486L1013.7,671.031L1012.89,708.106L1034.38,672.641L1012.78,713.557L1012.33,734.172L1043.49,684.813L1012.17,741.364L1011.18,787.206Z" style="fill:rgb(34,36,40);fill-rule:nonzero;"/>
    </g>
    <circle cx="852.454" cy="198.321" r="48.695" style="fill:rgb(47,46,65);"/>
    <circle cx="845.206" cy="215.332" r="33.068" style="fill:rgb(255,184,184);"/>
    <g transform="matrix(1,0,0,1,-89.25,-58.523)">
        <path d="M914.794,291.729C914.794,291.729 929.094,324.797 921.944,328.372C914.794,331.947 911.219,348.034 911.219,348.034L929.988,387.358L955.905,403.445L971.099,403.445C971.099,403.445 986.292,335.522 980.93,327.478C975.567,319.435 955.905,314.966 955.905,314.966C955.905,314.966 951.437,304.241 953.224,294.411C955.012,284.58 914.794,291.729 914.794,291.729Z" style="fill:rgb(255,184,184);fill-rule:nonzero;"/>
    </g>
    <g transform="matrix(1,0,0,1,-89.25,-58.523)">
        <path d="M893.345,385.57L870.108,366.802C870.108,366.802 828.103,337.309 833.466,358.759C838.828,380.208 862.958,381.995 862.958,381.995L903.176,414.169L893.345,385.57Z" style="fill:rgb(255,184,184);fill-rule:nonzero;"/>
    </g>
    <g transform="matrix(1,0,0,1,-89.25,-58.523)">
        <path d="M891.558,483.88C891.558,483.88 880.833,528.566 891.558,589.339L896.026,613.469C896.026,613.469 896.026,632.237 900.495,639.387C900.495,639.387 912.113,745.74 918.369,745.74C924.625,745.74 944.287,742.165 946.075,739.484C947.862,736.803 911.219,479.411 911.219,479.411L891.558,483.88Z" style="fill:rgb(24,25,28);fill-rule:nonzero;"/>
    </g>
    <g transform="matrix(1,0,0,1,-89.25,-58.523)">
        <path d="M920.908,738.602L907.064,789.908C907.064,789.908 879.375,806.196 896.477,809.453C913.579,812.711 930.681,806.196 930.681,806.196L938.824,782.579L946.968,777.692L946.968,802.938L949.411,802.938L955.112,769.549C955.112,769.549 954.298,752.447 949.411,750.818C944.525,749.189 942.082,740.231 942.082,740.231L920.908,738.602Z" style="fill:rgb(24,25,28);fill-rule:nonzero;"/>
    </g>
    <g transform="matrix(1,0,0,1,-89.25,-58.523)">
        <path d="M920.908,738.602L907.064,789.908C907.064,789.908 879.375,806.196 896.477,809.453C913.579,812.711 930.681,806.196 930.681,806.196L938.824,782.579L946.968,777.692L946.968,802.938L949.411,802.938L955.112,769.549C955.112,769.549 954.298,752.447 949.411,750.818C944.525,749.189 942.082,740.231 942.082,740.231L920.908,738.602Z" style="fill:rgb(34,36,40);fill-opacity:0.1;fill-rule:nonzero;"/>
    </g>
    <g transform="matrix(1,0,0,1,-89.25,-58.523)">
        <path d="M887.983,482.092C887.983,482.092 895.132,508.904 897.814,513.372C897.814,513.372 901.388,589.339 913.007,615.257L925.519,648.324C925.519,648.324 946.075,745.74 940.712,756.465C940.712,756.465 968.418,762.721 970.205,756.465C970.205,756.465 969.311,704.629 971.992,697.479C974.674,690.329 979.142,651.005 957.693,622.406L957.693,535.715C957.693,535.715 991.654,507.116 971.992,470.474C952.331,433.831 887.983,482.092 887.983,482.092Z" style="fill:rgb(34,36,40);fill-rule:nonzero;"/>
    </g>
    <g transform="matrix(1,0,0,1,-89.25,-58.523)">
        <path d="M943.393,751.102L928.2,807.407C928.2,807.407 897.814,825.281 916.582,828.856C935.35,832.431 954.118,825.281 954.118,825.281L963.055,799.363L971.992,794.001L971.992,821.706L974.674,821.706L980.93,785.064C980.93,785.064 980.036,766.296 974.674,764.508C969.311,762.721 966.63,752.89 966.63,752.89L943.393,751.102Z" style="fill:rgb(34,36,40);fill-rule:nonzero;"/>
    </g>
    <g transform="matrix(1,0,0,1,-89.25,-58.523)">
        <path d="M923.888,321.697C923.888,321.697 901.388,334.628 901.388,335.522C901.388,336.415 904.07,350.715 904.07,350.715C904.07,350.715 876.364,378.42 895.132,402.551C895.132,402.551 901.388,407.019 901.388,421.319L901.388,435.619C901.388,435.619 848.659,468.686 862.065,479.411C875.47,490.136 889.77,488.348 894.239,494.604C898.707,500.86 924.625,489.242 929.988,487.454C935.35,485.667 936.244,483.88 940.712,490.136C945.181,496.392 970.205,485.667 970.205,485.667C970.205,485.667 986.292,481.198 989.867,481.198C992.074,481.172 994.235,480.555 996.123,479.411L957.693,440.087L976.908,391.379C976.908,391.379 920.157,356.077 920.157,346.246C920.157,336.415 923.888,321.697 923.888,321.697Z" style="fill:rgb(110,109,111);fill-rule:nonzero;"/>
    </g>
    <g transform="matrix(1,0,0,1,-89.25,-58.523)">
        <path d="M958.587,323.903C958.587,323.903 946.968,339.99 955.905,362.333C964.843,384.676 979.142,410.594 979.142,410.594L956.799,417.744L936.244,417.744C936.244,417.744 893.345,410.594 897.814,426.681C902.282,442.768 932.669,435.619 932.669,435.619L950.543,435.619C950.543,435.619 990.761,440.087 996.123,432.937C996.123,432.937 1010.42,432.044 1004.17,403.445C997.91,374.845 979.645,325.89 979.645,325.89L958.587,323.903Z" style="fill:rgb(255,184,184);fill-rule:nonzero;"/>
    </g>
    <ellipse cx="838.776" cy="184.642" rx="31.187" ry="15.867" style="fill:rgb(47,46,65);"/>
    <ellipse cx="877.827" cy="213.098" rx="4.469" ry="9.831" style="fill:rgb(255,184,184);"/>
    <circle cx="874.252" cy="155.006" r="26.812" style="fill:rgb(47,46,65);"/>
    <circle cx="303" cy="166.954" r="110" style="fill:rgb(110,109,111);fill-opacity:0.3;"/>
    <circle cx="90" cy="472.954" r="65" style="fill:rgb(110,109,111);fill-opacity:0.3;"/>
    <circle cx="507" cy="472.954" r="133" style="fill:rgb(110,109,111);fill-opacity:0.3;"/>
    <g transform="matrix(1,0,0,1,-89.25,-58.523)">
        <path d="M635.515,448.983L633.655,448.248C634.381,446.413 635.086,444.535 635.752,442.664L637.637,443.334C636.963,445.227 636.249,447.127 635.515,448.983Z" style="fill:rgb(110,109,111);fill-rule:nonzero;"/>
    </g>
    <g transform="matrix(1,0,0,1,-89.25,-58.523)">
        <path d="M472.25,559.977C469.854,559.977 467.437,559.928 465.064,559.833L465.146,557.834C469.082,557.994 473.105,558.021 477.053,557.912L477.108,559.912C475.494,559.956 473.874,559.977 472.25,559.977ZM489.128,559.175L488.938,557.185C492.877,556.81 496.849,556.292 500.746,555.649L501.072,557.622C497.13,558.274 493.112,558.796 489.128,559.175ZM453.054,558.939C449.076,558.506 445.065,557.93 441.133,557.226L441.486,555.257C445.373,555.953 449.338,556.523 453.271,556.951L453.054,558.939ZM512.88,555.25L512.418,553.304C516.269,552.39 520.132,551.333 523.901,550.159L524.496,552.069C520.683,553.255 516.775,554.326 512.88,555.25ZM429.357,554.697C425.473,553.721 421.578,552.598 417.78,551.36L418.4,549.458C422.155,550.682 426.005,551.793 429.844,552.757L429.357,554.697ZM535.865,548.091L535.14,546.228C538.82,544.795 542.501,543.214 546.08,541.53L546.933,543.338C543.312,545.043 539.588,546.643 535.865,548.091ZM406.462,547.229C402.751,545.728 399.049,544.079 395.457,542.327L396.334,540.53C399.884,542.261 403.544,543.891 407.212,545.375L406.462,547.229ZM557.646,537.835L556.671,536.089C560.126,534.16 563.556,532.088 566.864,529.932L567.956,531.608C564.61,533.789 561.141,535.884 557.646,537.835ZM384.815,536.68C381.349,534.684 377.908,532.542 374.588,530.315L375.702,528.655C378.984,530.857 382.386,532.974 385.813,534.948L384.815,536.68ZM577.817,524.689L576.612,523.093C579.773,520.708 582.888,518.187 585.87,515.601L587.181,517.113C584.165,519.728 581.014,522.277 577.817,524.689ZM364.82,523.264C361.654,520.81 358.537,518.218 355.558,515.562L356.889,514.07C359.834,516.695 362.915,519.256 366.046,521.684L364.82,523.264ZM596.005,508.916L594.595,507.498C597.399,504.708 600.142,501.787 602.747,498.816L604.251,500.134C601.616,503.139 598.842,506.093 596.005,508.916ZM346.842,507.25C344.045,504.393 341.311,501.403 338.714,498.361L340.235,497.062C342.802,500.07 345.506,503.027 348.271,505.851L346.842,507.25ZM611.879,490.812L610.289,489.599C612.686,486.458 615.005,483.191 617.184,479.888L618.854,480.99C616.649,484.331 614.304,487.635 611.879,490.812ZM331.211,488.938C328.826,485.724 326.524,482.388 324.37,479.024L326.054,477.946C328.184,481.271 330.459,484.569 332.817,487.747L331.211,488.938ZM625.136,470.713L623.395,469.729C625.34,466.289 627.19,462.735 628.895,459.167L630.7,460.029C628.976,463.638 627.104,467.233 625.136,470.713ZM318.225,468.667C316.302,465.155 314.479,461.536 312.806,457.911L314.623,457.073C316.275,460.657 318.078,464.234 319.979,467.706L318.225,468.667Z" style="fill:rgb(110,109,111);fill-rule:nonzero;"/>
    </g>
    <g transform="matrix(1,0,0,1,-89.25,-58.523)">
        <path d="M308.115,446.739C307.407,444.874 306.72,442.964 306.071,441.061L307.965,440.416C308.605,442.297 309.285,444.186 309.985,446.029L308.115,446.739Z" style="fill:rgb(110,109,111);fill-rule:nonzero;"/>
    </g>
    <g transform="matrix(1,0,0,1,-89.25,-58.523)">
        <path d="M311.205,319.802L309.35,319.056C310.099,317.192 310.888,315.322 311.696,313.497L313.525,314.307C312.727,316.111 311.946,317.959 311.205,319.802Z" style="fill:rgb(110,109,111);fill-rule:nonzero;"/>
    </g>
    <g transform="matrix(1,0,0,1,-89.25,-58.523)">
        <path d="M318.781,303.472L317.013,302.538C318.902,298.965 320.943,295.411 323.078,291.976L324.776,293.032C322.666,296.428 320.649,299.94 318.781,303.472ZM624.141,300.559C622.208,297.066 620.124,293.593 617.948,290.235L619.626,289.147C621.827,292.543 623.936,296.057 625.891,299.59L624.141,300.559ZM331.481,283.032L329.86,281.861C332.227,278.583 334.738,275.346 337.325,272.24L338.862,273.52C336.305,276.591 333.821,279.791 331.481,283.032ZM611.053,280.365C608.654,277.172 606.11,274.02 603.494,270.995L605.006,269.687C607.653,272.746 610.226,275.934 612.652,279.164L611.053,280.365ZM346.881,264.54L345.436,263.157C348.231,260.236 351.164,257.375 354.154,254.654L355.5,256.133C352.544,258.824 349.645,261.652 346.881,264.54ZM595.307,262.169C592.489,259.334 589.536,256.561 586.529,253.927L587.848,252.423C590.888,255.087 593.875,257.892 596.726,260.759L595.307,262.169ZM364.678,248.341L363.437,246.772C366.61,244.262 369.909,241.833 373.242,239.551L374.372,241.201C371.076,243.457 367.815,245.859 364.678,248.341ZM577.206,246.311C574.026,243.892 570.719,241.552 567.377,239.357L568.475,237.685C571.856,239.906 575.201,242.272 578.417,244.719L577.206,246.311ZM384.535,234.75L383.522,233.026C387.008,230.979 390.611,229.029 394.231,227.229L395.122,229.02C391.543,230.799 387.981,232.728 384.535,234.75ZM557.091,233.101C553.602,231.141 550.003,229.281 546.396,227.573L547.251,225.766C550.901,227.493 554.541,229.375 558.071,231.356L557.091,233.101ZM406.082,224.041L405.318,222.192C409.054,220.649 412.894,219.219 416.729,217.941L417.36,219.838C413.57,221.102 409.775,222.515 406.082,224.041ZM535.342,222.805C531.616,221.35 527.794,220.009 523.982,218.82L524.578,216.911C528.434,218.114 532.3,219.47 536.069,220.942L535.342,222.805ZM428.906,216.435L428.408,214.498C432.321,213.492 436.323,212.61 440.301,211.879L440.662,213.846C436.73,214.569 432.775,215.44 428.906,216.435ZM512.373,215.639C508.484,214.719 504.513,213.924 500.569,213.276L500.893,211.303C504.883,211.958 508.9,212.762 512.834,213.693L512.373,215.639ZM452.571,212.081L452.346,210.094C456.351,209.642 460.435,209.323 464.486,209.146L464.573,211.144C460.567,211.319 456.529,211.634 452.571,212.081ZM488.629,211.74C484.659,211.368 480.616,211.129 476.612,211.031L476.661,209.032C480.711,209.131 484.8,209.373 488.816,209.749L488.629,211.74Z" style="fill:rgb(110,109,111);fill-rule:nonzero;"/>
    </g>
    <g transform="matrix(1,0,0,1,-89.25,-58.523)">
        <path d="M632.055,316.8C631.28,314.973 630.465,313.139 629.632,311.349L631.444,310.505C632.287,312.315 633.112,314.171 633.896,316.019L632.055,316.8Z" style="fill:rgb(110,109,111);fill-rule:nonzero;"/>
    </g>
    <g transform="matrix(1,0,0,1,399.75,-58.523)">
        <path d="M166.327,363.246L149.365,363.246C148.986,363.247 148.674,363.559 148.673,363.939L148.673,388.169C148.674,388.549 148.986,388.861 149.365,388.862L166.327,388.862C167.844,388.857 169.092,387.61 169.096,386.092L169.096,366.015C169.092,364.498 167.844,363.251 166.327,363.246Z" style="fill:rgb(56,128,255);fill-rule:nonzero;"/>
    </g>
    <g transform="matrix(1,0,0,1,399.75,-58.523)">
        <path d="M162.519,394.054C160.372,394.229 158.698,396.045 158.698,398.199C158.698,400.481 160.575,402.358 162.857,402.358C165.011,402.358 166.827,400.684 167.002,398.537C167.011,398.427 167.015,398.317 167.015,398.208C167.015,395.922 165.134,394.041 162.848,394.041C162.738,394.041 162.629,394.045 162.519,394.054Z" style="fill:rgb(56,128,255);fill-rule:nonzero;"/>
    </g>
    <g transform="matrix(1,0,0,1,399.75,-58.523)">
        <path d="M129.306,394.054C127.158,394.229 125.484,396.045 125.484,398.199C125.484,400.481 127.362,402.358 129.643,402.358C131.798,402.358 133.614,400.684 133.788,398.537C133.797,398.427 133.801,398.317 133.801,398.208C133.801,395.922 131.921,394.041 129.635,394.041C129.525,394.041 129.415,394.045 129.306,394.054Z" style="fill:rgb(56,128,255);fill-rule:nonzero;"/>
    </g>
    <g transform="matrix(1,0,0,1,399.75,-58.523)">
        <path d="M143.135,363.246L126.208,363.246C124.672,363.252 123.41,364.514 123.404,366.05L123.404,386.058C123.41,387.594 124.672,388.856 126.208,388.862L143.135,388.862C143.514,388.861 143.826,388.549 143.827,388.169L143.827,363.939C143.826,363.559 143.514,363.247 143.135,363.246Z" style="fill:rgb(56,128,255);fill-rule:nonzero;"/>
    </g>
    <g transform="matrix(1,0,0,1,399.75,-58.523)">
        <path d="M146.25,321.477C114.981,321.477 89.25,347.208 89.25,378.477C89.25,409.746 114.981,435.477 146.25,435.477C177.519,435.477 203.25,409.746 203.25,378.477C203.25,347.208 177.519,321.477 146.25,321.477ZM173.942,401.669C173.931,405.463 170.813,408.581 167.019,408.592L125.481,408.592C121.687,408.581 118.569,405.463 118.558,401.669L118.558,353.9C118.567,350.865 121.061,348.371 124.096,348.362L168.404,348.362C171.439,348.371 173.933,350.865 173.942,353.9L173.942,401.669Z" style="fill:rgb(56,128,255);fill-rule:nonzero;"/>
    </g>
    <g transform="matrix(1,0,0,1,399.75,-58.523)">
        <path d="M166.5,353.208L126,353.208C125.944,353.204 125.889,353.202 125.833,353.202C124.5,353.202 123.404,354.298 123.404,355.631C123.404,356.963 124.5,358.06 125.833,358.06C125.889,358.06 125.944,358.058 126,358.054L166.5,358.054C166.556,358.058 166.611,358.06 166.667,358.06C168,358.06 169.096,356.963 169.096,355.631C169.096,354.298 168,353.202 166.667,353.202C166.611,353.202 166.556,353.204 166.5,353.208Z" style="fill:rgb(56,128,255);fill-rule:nonzero;"/>
    </g>
    <g transform="matrix(1,0,0,1,-89.25,-58.523)">
        <path d="M316.865,380.035C315.723,380.035 314.788,381.731 314.788,383.842C314.788,385.954 315.723,387.65 316.865,387.65C318.008,387.65 318.942,385.954 318.942,383.842C318.942,381.731 318.008,380.035 316.865,380.035Z" style="fill:rgb(56,128,255);fill-rule:nonzero;"/>
    </g>
    <g transform="matrix(1,0,0,1,-89.25,-58.523)">
        <path d="M301.635,380.035C300.492,380.035 299.558,381.731 299.558,383.842C299.558,385.954 300.492,387.65 301.635,387.65C302.777,387.65 303.712,385.954 303.712,383.842C303.712,381.731 302.777,380.035 301.635,380.035Z" style="fill:rgb(56,128,255);fill-rule:nonzero;"/>
    </g>
    <g transform="matrix(1,0,0,1,-89.25,-58.523)">
        <path d="M309.25,321.477C277.981,321.477 252.25,347.208 252.25,378.477C252.25,409.746 277.981,435.477 309.25,435.477C340.519,435.477 366.25,409.746 366.25,378.477C366.25,347.208 340.519,321.477 309.25,321.477ZM282.596,376.539L285.746,359.785C286.56,355.233 288.671,351.65 292.635,351.65L298.588,351.65L298.935,350.283C299.556,347.837 301.776,346.111 304.3,346.112L314.165,346.112C316.684,346.11 318.901,347.827 319.531,350.265L319.877,351.65L325.865,351.65C329.742,351.65 331.802,355.164 332.771,359.767L332.771,359.785L335.938,376.556C335.947,376.601 335.952,376.646 335.952,376.692C335.952,377.071 335.64,377.382 335.261,377.382C335.16,377.382 335.061,377.36 334.969,377.317L330.573,375.292C330.363,375.205 330.212,375.015 330.175,374.791L327.371,359.975C326.852,358.071 326.125,357.206 324.585,357.206L293.933,357.206C292.41,357.206 291.579,358.123 291.146,359.975L288.342,374.79C288.299,375.012 288.15,375.2 287.944,375.292L283.565,377.3C283.475,377.341 283.378,377.362 283.279,377.362C282.898,377.362 282.584,377.048 282.584,376.667C282.584,376.624 282.588,376.581 282.596,376.539ZM343.64,387.321L334.173,410.842C329.413,410.842 324.36,407.035 324.36,407.035C321.244,408.61 315.169,409.994 310.635,410.254C310.15,410.271 309.683,410.289 309.25,410.289C308.817,410.289 308.35,410.289 307.865,410.254C303.331,409.994 297.256,408.592 294.14,407.035C294.14,407.035 289.087,410.842 284.327,410.842L274.86,387.321C274.714,386.952 274.637,386.559 274.635,386.162C274.635,384.944 275.346,383.833 276.452,383.323L308.661,368.525C309.028,368.352 309.454,368.352 309.821,368.525L342.048,383.323C343.154,383.833 343.865,384.944 343.865,386.162C343.863,386.559 343.786,386.952 343.64,387.321Z" style="fill:rgb(56,128,255);fill-rule:nonzero;"/>
    </g>
    <g transform="matrix(1,0,0,1,-89.25,-58.523)">
        <path d="M472.25,321.477C440.981,321.477 415.25,347.208 415.25,378.477C415.25,409.746 440.981,435.477 472.25,435.477C503.519,435.477 529.25,409.746 529.25,378.477C529.25,347.208 503.519,321.477 472.25,321.477ZM498.508,384.033C497.919,384.033 495.964,384.015 495.393,383.981L484.16,383.687C484.042,383.684 483.93,383.743 483.866,383.842L467.008,409.042C466.501,409.841 465.617,410.325 464.671,410.323L460.57,410.323C459.6,410.323 459.271,409.354 459.618,408.454L468.289,383.721C468.304,383.682 468.312,383.64 468.312,383.597C468.312,383.412 468.162,383.259 467.977,383.254L446.914,382.787C446.47,382.777 446.047,382.976 445.771,383.323L439.246,391.233C438.718,391.897 437.915,392.286 437.066,392.289L434.168,392.289C433.79,392.289 433.479,391.977 433.479,391.599C433.479,391.522 433.492,391.445 433.518,391.371L436.962,379.481C437.221,378.819 437.221,378.083 436.962,377.421L433.518,365.531C433.492,365.458 433.479,365.381 433.479,365.303C433.479,364.925 433.79,364.614 434.168,364.614L437.083,364.614C437.934,364.609 438.74,364.999 439.264,365.669L445.668,373.458C445.941,373.808 446.366,374.008 446.81,373.994L467.995,373.683C468.18,373.682 468.331,373.529 468.331,373.344C468.331,373.3 468.323,373.256 468.306,373.216L459.635,348.5C459.289,347.6 459.618,346.631 460.587,346.631L464.689,346.631C465.634,346.633 466.515,347.116 467.025,347.912L483.866,373.129C483.927,373.232 484.041,373.292 484.16,373.285L495.393,372.991C495.946,372.956 497.919,372.939 498.508,372.939C506.193,372.939 511.021,375.431 511.021,378.494C511.021,381.558 506.175,384.033 498.508,384.033Z" style="fill:rgb(56,128,255);fill-rule:nonzero;"/>
    </g>
    <g transform="matrix(1,0,0,1,-89.25,-58.523)">
        <path d="M154.922,570.613C148.339,570.613 142.922,565.196 142.922,558.613C142.922,552.03 148.339,546.613 154.922,546.613C161.505,546.613 166.922,552.03 166.922,558.613C166.915,565.193 161.503,570.605 154.922,570.613ZM154.922,548.613C149.437,548.613 144.922,553.127 144.922,558.613C144.922,564.099 149.437,568.613 154.922,568.613C160.408,568.613 164.922,564.099 164.922,558.613C164.916,553.129 160.406,548.619 154.922,548.613Z" style="fill:rgb(240,240,240);fill-rule:nonzero;"/>
    </g>
    <g transform="matrix(1,0,0,1,-89.25,-58.523)">
        <path d="M407.922,301.613C401.339,301.613 395.922,296.196 395.922,289.613C395.922,283.03 401.339,277.613 407.922,277.613C414.505,277.613 419.922,283.03 419.922,289.613C419.915,296.193 414.503,301.605 407.922,301.613ZM407.922,279.613C402.437,279.613 397.922,284.127 397.922,289.613C397.922,295.099 402.437,299.613 407.922,299.613C413.408,299.613 417.922,295.099 417.922,289.613C417.916,284.129 413.406,279.619 407.922,279.613Z" style="fill:rgb(240,240,240);fill-rule:nonzero;"/>
    </g>
    <g transform="matrix(1,0,0,1,-89.25,-58.523)">
        <path d="M631.394,630.983L617.929,616.547L632.365,603.081L645.83,617.518L631.394,630.983ZM620.075,616.621L631.469,628.836L643.684,617.443L632.29,605.228L620.075,616.621Z" style="fill:rgb(240,240,240);fill-rule:nonzero;"/>
    </g>
</svg>
