<?xml version="1.0" standalone="no"?>
<!DOCTYPE svg PUBLIC "-//W3C//DTD SVG 20010904//EN"
 "http://www.w3.org/TR/2001/REC-SVG-20010904/DTD/svg10.dtd">
<svg version="1.0" xmlns="http://www.w3.org/2000/svg"
 width="700.000000pt" height="700.000000pt" viewBox="0 0 700.000000 700.000000"
 preserveAspectRatio="xMidYMid meet">
<metadata>
Created by potrace 1.11, written by Peter Selinger 2001-2013
</metadata>
<g transform="translate(0.000000,700.000000) scale(0.100000,-0.100000)"
fill="#000000" stroke="none">
<path d="M0 3500 l0 -3500 3500 0 3500 0 0 3500 0 3500 -3500 0 -3500 0 0
-3500z m3840 1733 c43 -81 123 -173 150 -173 8 0 42 18 75 40 61 41 149 75
167 64 5 -3 7 -23 3 -44 -8 -46 3 -54 85 -65 63 -9 157 -38 215 -67 154 -79
384 -286 487 -439 98 -146 199 -375 184 -415 -3 -8 -19 -14 -39 -14 -18 0 -57
-7 -85 -15 -61 -19 -73 -14 -145 52 -71 66 -146 97 -232 97 -128 -1 -162 -25
-383 -271 -108 -122 -186 -169 -390 -237 -184 -62 -249 -97 -289 -158 -34 -50
-36 -115 -7 -155 54 -72 156 -103 363 -111 283 -10 444 44 771 257 91 60 181
114 200 122 19 8 68 14 108 14 92 0 106 -13 98 -94 -6 -64 -55 -170 -163 -355
-73 -122 -78 -135 -81 -197 -4 -65 -2 -71 67 -221 92 -200 116 -291 108 -418
-29 -456 -445 -944 -992 -1165 -356 -144 -770 -151 -1180 -18 -351 113 -622
291 -825 538 -155 189 -283 437 -353 685 -78 270 -87 605 -26 889 60 274 217
607 377 794 87 103 84 103 136 -7 123 -264 304 -455 554 -586 140 -74 318
-282 379 -444 30 -81 50 -95 72 -52 20 36 6 74 -70 193 -150 235 -208 389
-229 614 -20 206 26 484 108 654 59 123 124 197 292 335 l43 36 -28 69 c-32
80 -43 180 -26 240 20 71 21 72 107 9 84 -60 199 -119 214 -109 6 4 10 12 10
18 0 27 50 114 84 150 20 20 39 37 41 37 2 0 22 -35 45 -77z"/>
<path d="M4872 4494 c-76 -53 -64 -180 22 -220 98 -47 203 66 152 164 -33 65
-121 93 -174 56z m83 -50 c8 -4 23 -20 31 -36 14 -27 14 -32 -1 -54 -27 -42
-87 -26 -100 28 -5 19 -1 32 14 47 22 22 30 25 56 15z"/>
<path d="M3996 4460 c-98 -30 -146 -162 -93 -255 84 -149 290 -85 290 90 0 67
-23 108 -76 139 -52 31 -84 37 -121 26z m103 -91 c41 -41 43 -103 5 -148 -63
-75 -185 -5 -160 93 3 14 18 38 32 55 35 42 81 42 123 0z"/>
</g>
</svg>
