<?xml version="1.0" encoding="UTF-8" standalone="no"?>
<!DOCTYPE svg PUBLIC "-//W3C//DTD SVG 1.1//EN" "http://www.w3.org/Graphics/SVG/1.1/DTD/svg11.dtd">
<svg width="100%" height="100%" viewBox="0 0 512 512" version="1.1" xmlns="http://www.w3.org/2000/svg" xmlns:xlink="http://www.w3.org/1999/xlink" xml:space="preserve" xmlns:serif="http://www.serif.com/" style="fill-rule:evenodd;clip-rule:evenodd;stroke-linecap:round;stroke-linejoin:round;">
    <g transform="matrix(1,0,0,1,0,16)">
        <path d="M93.72,183.25C49.49,198.05 16,233.1 16,288C16,354 70,400 136,400L320.37,400" style="fill:none;fill-rule:nonzero;stroke:currentColor;stroke-width:32px;"/>
    </g>
    <g transform="matrix(1,0,0,1,0,16)">
        <path d="M467.82,377.74C485.24,363.3 496,341.61 496,312C496,252.18 443,226.24 400,224C391.11,134.46 329,80 256,80C229.84,80 207.21,86.93 188.4,98.14" style="fill:none;fill-rule:nonzero;stroke:currentColor;stroke-width:32px;"/>
    </g>
    <g transform="matrix(1,0,0,1,0,16)">
        <path d="M448,448L64,64" style="fill:none;fill-rule:nonzero;stroke:currentColor;stroke-width:32px;stroke-linejoin:miter;stroke-miterlimit:10;"/>
    </g>
</svg>
