<?xml version="1.0" encoding="UTF-8" standalone="no"?>
<!DOCTYPE svg PUBLIC "-//W3C//DTD SVG 1.1//EN" "http://www.w3.org/Graphics/SVG/1.1/DTD/svg11.dtd">
<svg width="100%" height="100%" viewBox="0 0 512 512" version="1.1" xmlns="http://www.w3.org/2000/svg" xmlns:xlink="http://www.w3.org/1999/xlink" xml:space="preserve" xmlns:serif="http://www.serif.com/" style="fill-rule:evenodd;clip-rule:evenodd;stroke-linejoin:round;">
    <path d="M396,416C451,416 496,388.56 496,328C496,268.18 443,242.24 400,240C391.11,150.46 329,96 256,96C187,96 142.56,144.2 128,192C68,198 16,235.59 16,304C16,370 70,416 136,416" style="fill:none;fill-rule:nonzero;stroke:currentColor;stroke-width:32px;"/>
    <g transform="matrix(0.938216,0,0,0.938216,15.8167,105.843)">
        <g>
            <path d="M351.82,271.87L351.82,255.87C351.642,203.247 308.294,160.045 255.671,160.045C228.368,160.045 202.319,171.674 184.09,192M159.89,240.17L159.89,256.17C160.074,308.827 203.452,352.054 256.109,352.054C283.467,352.054 309.566,340.386 327.81,320" style="fill:none;fill-rule:nonzero;stroke:currentColor;stroke-width:32px;stroke-linecap:round;"/>
            <path d="M135.87,256L159.46,232.4L184.13,256M376.13,256L352.54,279.6L327.87,256" style="fill:none;fill-rule:nonzero;stroke:currentColor;stroke-width:32px;stroke-linecap:round;"/>
        </g>
    </g>
</svg>
