<?xml version="1.0" encoding="UTF-8" standalone="no"?><!DOCTYPE svg PUBLIC "-//W3C//DTD SVG 1.1//EN" "http://www.w3.org/Graphics/SVG/1.1/DTD/svg11.dtd"><svg width="100%" height="100%" viewBox="0 0 512 512" version="1.1" xmlns="http://www.w3.org/2000/svg" xmlns:xlink="http://www.w3.org/1999/xlink" xml:space="preserve" xmlns:serif="http://www.serif.com/" style="fill-rule:evenodd;clip-rule:evenodd;stroke-linejoin:round;stroke-miterlimit:1.41421;"><path d="M321,240l-240.5,0c-8.8,0 -16,7.2 -16,16c0,8.8 7.2,16 16,16l240.5,0c8.8,0 16,-7.2 16,-16c0,-8.8 -7.2,-16 -16,-16Zm0,124l-240.5,0c-8.8,0 -16,7.2 -16,16c0,8.8 7.2,16 16,16l240.5,0c8.8,0 16,-7.2 16,-16c0,-8.8 -7.2,-16 -16,-16Zm-240.5,-216l240.5,0c8.8,0 16,-7.2 16,-16c0,-8.8 -7.2,-16 -16,-16l-240.5,0c-8.8,0 -16,7.2 -16,16c0,8.8 7.2,16 16,16Z" style="fill-rule:nonzero;"/><g><path d="M434.078,122.094l0,19.844c11.507,0 20.922,-4.465 20.922,-9.922c0,-5.457 -9.415,-9.922 -20.922,-9.922Z" style="fill-rule:nonzero;"/><g><path d="M377.411,110.575l58.079,32.774c2.142,0.754 6.474,-2.912 9.626,-8.147c3.151,-5.235 7.095,-8.653 5.023,-9.522l-61.269,-34.142c-2.144,-0.754 -6.475,2.912 -9.626,8.147c-3.151,5.235 -3.976,10.136 -1.833,10.89Z" style="fill-rule:nonzero;"/><path d="M390.229,173.621l59.862,-35.25c0.562,-1.859 -1.859,-4.156 -5.008,-9.392c-3.149,-5.236 -7.48,-8.903 -9.623,-8.149l-56.682,33.752c-2.143,0.754 -1.321,5.654 1.828,10.89c3.149,5.236 7.48,8.903 9.623,8.149Z" style="fill-rule:nonzero;"/></g></g><g><path d="M434.078,244.094l0,19.844c11.507,0 20.922,-4.465 20.922,-9.922c0,-5.457 -9.415,-9.922 -20.922,-9.922Z" style="fill-rule:nonzero;"/><g><path d="M377.411,232.575l58.079,32.774c2.142,0.754 6.474,-2.912 9.626,-8.147c3.151,-5.235 7.095,-8.653 5.023,-9.522l-61.269,-34.142c-2.144,-0.754 -6.475,2.912 -9.626,8.147c-3.151,5.235 -3.976,10.136 -1.833,10.89Z" style="fill-rule:nonzero;"/><path d="M390.229,295.621l59.862,-35.25c0.562,-1.859 -1.859,-4.156 -5.008,-9.392c-3.149,-5.236 -7.48,-8.903 -9.623,-8.149l-56.682,33.752c-2.143,0.754 -1.321,5.654 1.828,10.89c3.149,5.236 7.48,8.903 9.623,8.149Z" style="fill-rule:nonzero;"/></g></g><g><path d="M434.078,371.094l0,19.844c11.507,0 20.922,-4.465 20.922,-9.922c0,-5.457 -9.415,-9.922 -20.922,-9.922Z" style="fill-rule:nonzero;"/><g><path d="M377.411,359.575l58.079,32.774c2.142,0.754 6.474,-2.912 9.626,-8.147c3.151,-5.235 7.095,-8.653 5.023,-9.522l-61.269,-34.142c-2.144,-0.754 -6.475,2.912 -9.626,8.147c-3.151,5.235 -3.976,10.136 -1.833,10.89Z" style="fill-rule:nonzero;"/><path d="M390.229,422.621l59.862,-35.25c0.562,-1.859 -1.859,-4.156 -5.008,-9.392c-3.149,-5.236 -7.48,-8.903 -9.623,-8.149l-56.682,33.752c-2.143,0.754 -1.321,5.654 1.828,10.89c3.149,5.236 7.48,8.903 9.623,8.149Z" style="fill-rule:nonzero;"/></g></g></svg>