<svg fill="#000000" xmlns="http://www.w3.org/2000/svg" xmlns:xlink="http://www.w3.org/1999/xlink" version="1.1" x="0px" y="0px" viewBox="0 0 128 128" style="enable-background:new 0 0 128 128;" xml:space="preserve"><g><path d="M116.7,34.3H11.3c-3.8,0-7,3.1-7,7v35.3c0,3.8,3.1,7,7,7h6.9v10.1H35V83.5h60.7v10.1h16.9V83.5h4.1c3.8,0,7-3.1,7-7V41.3   C123.7,37.4,120.6,34.3,116.7,34.3z M32,90.7H21.2v-7.1H32V90.7z M109.6,90.7H98.7v-7.1h10.9V90.7z M120.7,76.6c0,2.2-1.8,4-4,4   h-4.1H95.7H35H18.2h-6.9c-2.2,0-4-1.8-4-4V41.3c0-2.2,1.8-4,4-4h105.5c2.2,0,4,1.8,4,4V76.6z"></path><rect x="22" y="46" width="3" height="25.8"></rect><rect x="32" y="46" width="3" height="25.8"></rect><rect x="42" y="46" width="3" height="25.8"></rect><path d="M91.7,43.6c-8.4,0-15.3,6.9-15.3,15.3s6.9,15.3,15.3,15.3S107,67.4,107,58.9S100.2,43.6,91.7,43.6z M91.7,71.2   c-6.8,0-12.3-5.5-12.3-12.3s5.5-12.3,12.3-12.3S104,52.1,104,58.9S98.5,71.2,91.7,71.2z"></path><path d="M95.7,52.6c-0.6-0.6-1.6-0.5-2.1,0.1c-0.6,0.6-0.5,1.6,0.1,2.1c0.6,0.5,1.4,1.5,1.9,2.9c0.4,1.3,0.4,2.4,0.3,3.2   c-0.1,0.8,0.5,1.6,1.3,1.7c0.1,0,0.1,0,0.2,0c0.7,0,1.4-0.5,1.5-1.3c0.1-1.1,0.2-2.7-0.5-4.6C97.8,54.8,96.6,53.4,95.7,52.6z"></path></g></svg>
