<?xml version="1.0" encoding="UTF-8" standalone="no"?><!DOCTYPE svg PUBLIC "-//W3C//DTD SVG 1.1//EN" "http://www.w3.org/Graphics/SVG/1.1/DTD/svg11.dtd"><svg width="100%" height="100%" viewBox="0 0 123 123" version="1.1" xmlns="http://www.w3.org/2000/svg" xmlns:xlink="http://www.w3.org/1999/xlink" xml:space="preserve" xmlns:serif="http://www.serif.com/" style="fill-rule:evenodd;clip-rule:evenodd;stroke-linejoin:round;stroke-miterlimit:1.41421;"><ellipse cx="63.79" cy="61.46" rx="58.394" ry="60.179" style="fill:#fff;"/><path d="M68.22,25.062c-1.614,0.998 -2.42,2.474 -2.949,4.144c-0.27,0.85 -0.243,0.809 -1.081,0.483c-2.202,-0.857 -4.065,-2.253 -5.95,-3.722c-0.627,0.829 -0.805,1.736 -0.878,2.673c-0.14,1.768 0.269,3.42 1.059,4.998c0.464,0.93 0.332,1.278 -0.502,1.847c-3.778,2.581 -6.608,5.95 -7.942,10.349c-1.869,6.167 -2.183,12.404 -0.297,18.665c0.841,2.798 2.389,5.216 3.887,7.668c0.428,0.7 0.916,1.364 1.379,2.043c0.329,0.48 0.55,1.014 0.695,1.57c0.126,0.488 0.123,0.985 -0.214,1.411c-0.201,0.255 -0.392,0.592 -0.766,0.535c-0.351,-0.054 -0.311,-0.45 -0.394,-0.697c-1.472,-4.397 -4.197,-7.862 -7.872,-10.621c-0.392,-0.293 -0.813,-0.564 -1.254,-0.775c-6.389,-3.075 -10.63,-8.124 -13.386,-14.54c-0.194,-0.451 -0.373,-0.909 -0.563,-1.374c-4.3,3.288 -10.123,13.841 -11.425,23.593c-1.218,9.129 0.267,17.775 4.466,25.941c4.216,8.197 10.518,14.312 18.982,18.457c-8.704,-0.758 -18.444,-7.386 -19.305,-7.997c-1.668,-1.182 -3.171,-2.59 -4.677,-3.985c-2.415,-2.237 -4.551,-4.72 -6.573,-7.303c-2.974,-3.8 -5.43,-7.932 -7.37,-12.337c-1.967,-4.465 -3.51,-9.08 -4.235,-13.948c-0.307,-2.061 -0.594,-4.127 -0.889,-6.19c-0.127,-0.887 0.001,-1.809 -0.076,-2.708c-0.175,-2.076 -0.06,-4.152 0.051,-6.217c0.105,-1.952 0.492,-3.891 0.765,-5.834c0.754,-5.358 2.427,-10.445 4.665,-15.345c1.686,-3.694 3.75,-7.165 6.133,-10.474c2.777,-3.856 6.002,-7.271 9.535,-10.404c2.698,-2.394 5.648,-4.466 8.752,-6.325c3.889,-2.328 8.005,-4.114 12.282,-5.584c3.227,-1.11 6.541,-1.784 9.903,-2.298c2.709,-0.414 5.418,-0.756 8.164,-0.72c1.973,0.025 3.974,-0.165 5.912,0.109c4.24,0.599 8.512,1.112 12.617,2.426c4.46,1.429 8.794,3.191 12.836,5.559c3.324,1.946 6.488,4.141 9.409,6.69c4.167,3.635 7.81,7.701 10.913,12.281c2.844,4.195 5.15,8.659 6.847,13.42c1.235,3.465 2.284,7.008 2.827,10.653c0.318,2.134 0.584,4.287 0.665,6.462c0.055,1.474 0.149,2.949 0.13,4.425c-0.034,2.701 -0.334,5.378 -0.672,8.058c-0.576,4.571 -1.833,8.96 -3.473,13.234c-1.603,4.178 -3.644,8.144 -6.19,11.848c-1.488,2.163 -3.026,4.282 -4.761,6.25c-2.688,3.051 -5.631,5.814 -8.869,8.296c-2.876,2.204 -5.908,4.133 -9.08,5.85c-1.512,0.818 -3.114,1.471 -4.692,2.162c-4.174,1.828 -8.558,2.985 -13.008,3.872c-1.11,0.22 -2.256,0.427 -3.415,0.382c-0.4,-0.015 -0.735,-0.032 -0.763,-0.56c-0.026,-0.493 0.339,-0.502 0.646,-0.565c2.623,-0.543 5.181,-1.291 7.654,-2.327c7.884,-3.304 14.26,-8.451 18.837,-15.694c2.15,-3.401 3.531,-7.146 3.821,-11.194c0.182,-2.537 -0.452,-4.973 -1.478,-7.289c-0.648,-1.462 -1.347,-2.902 -2.064,-4.331c-1.048,-2.086 -0.969,-4.052 0.31,-6.052c1.215,-1.901 2.305,-3.885 3.386,-5.866c0.808,-1.481 1.529,-3.008 1.438,-4.775c-0.055,-1.07 -0.238,-1.253 -1.291,-1.395c-2.059,-0.278 -3.893,0.281 -5.588,1.413c-1.844,1.23 -3.67,2.49 -5.536,3.687c-6.038,3.869 -12.586,4.982 -19.585,3.543c-0.638,-0.132 -1.263,-0.364 -1.871,-0.606c-2.551,-1.011 -3.187,-3.583 -1.158,-5.757c1.095,-1.172 2.529,-1.811 4.037,-2.274c1.648,-0.504 3.294,-1.008 4.912,-1.608c2.662,-0.989 4.755,-2.7 6.581,-4.82c1.282,-1.489 2.43,-3.092 3.939,-4.391c2.835,-2.441 6.541,-2.113 9.182,-0.104c0.684,0.52 1.307,1.123 1.937,1.713c0.492,0.462 0.987,0.63 1.671,0.386c0.926,-0.33 1.887,-0.574 2.886,-0.565c0.648,0.006 0.741,-0.318 0.597,-0.874c-0.399,-1.559 -1.013,-3.036 -1.714,-4.476c-1.722,-3.541 -3.874,-6.825 -6.833,-9.42c-2.811,-2.465 -5.611,-5.046 -9.319,-6.207c-1.012,-0.317 -2.019,-0.653 -3.098,-0.668c-0.242,-0.003 -0.487,-0.055 -0.722,-0.117c-1.06,-0.278 -1.099,-0.347 -0.863,-1.426c0.206,-0.945 0.024,-1.144 -0.881,-0.925c-1.043,0.252 -1.962,0.718 -2.861,1.34c-2.407,1.667 -1.977,1.473 -3.826,-0.499c-0.854,-0.911 -1.374,-2.033 -1.939,-3.126c-0.185,-0.357 -0.359,-0.721 -0.56,-1.127" style="fill:#3a81fe;fill-rule:nonzero;"/><path d="M77.361,48.606c0.109,1.093 -0.422,2.026 -1.101,2.855c-1.407,1.719 -4.143,1.463 -5.507,-0.473c-1.237,-1.756 -0.803,-4.447 0.942,-5.709c1.097,-0.793 2.312,-0.895 3.47,-0.241c1.332,0.751 2.377,1.773 2.196,3.568Zm-1.515,-0.276c0.003,0.002 0.028,-0.194 -0.006,-0.38c-0.162,-0.905 -1.221,-1.82 -2.175,-1.9c-0.666,-0.055 -1.5,0.548 -1.853,1.395c-0.169,0.409 -0.334,0.823 -0.319,1.296c0.039,1.172 0.921,2.197 2.075,2.359c1.03,0.143 1.837,-0.477 2.212,-1.691c0.086,-0.277 0.126,-0.555 0.066,-1.079c0,0 0,-0.001 0,-0.003l0,0.003Z" style="fill:#3a81fe;"/><path d="M97.413,46.547c0.012,1.524 -1.292,2.853 -2.782,2.835c-1.541,-0.019 -2.863,-1.462 -2.848,-3.109c0.014,-1.404 1.284,-2.789 2.575,-2.807c1.564,-0.022 3.042,1.47 3.055,3.081Zm-2.817,1.179c-0.801,-0.018 -1.313,-0.588 -1.293,-1.44c0.017,-0.709 0.474,-1.248 1.075,-1.265c0.745,-0.021 1.567,0.838 1.539,1.608c-0.025,0.723 -0.498,1.115 -1.321,1.097Z" style="fill:#3a81fe;"/></svg>
