<?xml version="1.0" encoding="UTF-8" standalone="no"?><!DOCTYPE svg PUBLIC "-//W3C//DTD SVG 1.1//EN" "http://www.w3.org/Graphics/SVG/1.1/DTD/svg11.dtd"><svg width="100%" height="100%" viewBox="0 0 2134 2134" version="1.1" xmlns="http://www.w3.org/2000/svg" xmlns:xlink="http://www.w3.org/1999/xlink" xml:space="preserve" xmlns:serif="http://www.serif.com/" style="fill-rule:evenodd;clip-rule:evenodd;stroke-linejoin:round;"><path d="M1666.67,1000c-37.042,-373.083 -295.834,-600 -600,-600c-287.5,0 -472.667,200.833 -533.334,400c-250,25 -466.666,181.625 -466.666,466.667c-0,275 225,466.666 500,466.666l1083.33,0c229.167,0 416.667,-114.333 416.667,-366.666c-0,-249.25 -220.834,-357.334 -400,-366.667Z" style="fill:none;fill-rule:nonzero;stroke:#000;stroke-width:133.33px;"/><g><path d="M1422.19,1189.06l-779.107,0c-32.756,0 -59.556,26.8 -59.556,59.556c-0,32.756 26.8,59.557 59.556,59.557l779.107,-0c32.756,-0 59.556,-26.801 59.556,-59.557c0,-32.756 -26.8,-59.556 -59.556,-59.556Zm-0,201.003l-779.107,-0c-32.756,-0 -59.556,26.8 -59.556,59.556c-0,32.756 26.8,59.557 59.556,59.557l779.107,-0c32.756,-0 59.556,-26.801 59.556,-59.557c0,-32.756 -26.8,-59.556 -59.556,-59.556Zm-779.107,-279.171l473.105,0c32.756,0 59.556,-26.8 59.556,-59.556c0,-32.756 -26.8,-59.556 -59.556,-59.556l-473.105,-0c-32.756,-0 -59.556,26.8 -59.556,59.556c-0,32.756 26.8,59.556 59.556,59.556Z" style="fill-rule:nonzero;"/><path d="M1416,991.784l-121.4,-0c-32.756,-0 -59.556,26.8 -59.556,59.556c-0,32.756 26.8,59.556 59.556,59.556l121.4,0c32.756,0 59.556,-26.8 59.556,-59.556c0,-32.756 -26.8,-59.556 -59.556,-59.556Z" style="fill-rule:nonzero;"/></g></svg>