<?xml version="1.0" standalone="no"?>
<!DOCTYPE svg PUBLIC "-//W3C//DTD SVG 20010904//EN"
 "http://www.w3.org/TR/2001/REC-SVG-20010904/DTD/svg10.dtd">
<svg version="1.0" xmlns="http://www.w3.org/2000/svg"
 width="1080.000000pt" height="1080.000000pt" viewBox="0 0 1080.000000 1080.000000"
 preserveAspectRatio="xMidYMid meet">
<metadata>
Created by potrace 1.11, written by Peter Selinger 2001-2013
</metadata>
<g transform="translate(0.000000,1080.000000) scale(0.100000,-0.100000)"
fill="#000000" stroke="none">
<path d="M5157 10794 c-1 -1 -43 -5 -92 -8 -50 -3 -124 -10 -165 -16 -41 -5
-91 -12 -110 -14 -171 -23 -362 -57 -560 -101 -69 -15 -192 -49 -223 -60 -20
-8 -38 -14 -40 -14 -5 2 -123 -34 -152 -47 -16 -7 -64 -25 -105 -40 -125 -45
-394 -158 -455 -191 -31 -17 -41 -22 -90 -44 -43 -20 -236 -128 -252 -141 -7
-6 -13 -8 -13 -5 0 4 -17 -5 -37 -18 -21 -14 -45 -30 -53 -35 -348 -219 -580
-403 -868 -687 -292 -289 -538 -595 -728 -902 -21 -35 -49 -80 -62 -100 -12
-20 -33 -56 -46 -81 -14 -25 -36 -65 -50 -90 -79 -138 -243 -502 -311 -690
-62 -173 -153 -489 -169 -590 -3 -19 -8 -46 -11 -60 -5 -23 -16 -90 -60 -365
-34 -212 -40 -308 -39 -640 0 -271 7 -432 19 -467 2 -7 7 -31 9 -53 3 -22 12
-89 21 -150 8 -60 18 -130 21 -155 11 -95 66 -354 104 -491 99 -361 289 -816
465 -1114 19 -33 39 -69 45 -80 13 -29 165 -258 235 -356 255 -356 616 -737
944 -996 71 -55 105 -89 118 -117 17 -38 18 -95 18 -947 0 -499 3 -910 7 -914
9 -9 29 6 120 88 42 37 87 77 99 88 29 25 60 53 169 150 47 42 100 89 119 105
18 16 46 40 61 54 39 35 169 151 194 173 50 44 151 133 166 147 9 8 52 46 96
85 43 38 86 76 95 85 17 16 24 22 209 185 69 61 128 113 131 118 5 7 35 -3
114 -38 80 -36 389 -140 475 -161 113 -27 233 -54 265 -60 22 -4 47 -9 55 -10
36 -8 290 -44 340 -48 223 -19 326 -22 650 -17 69 1 145 1 170 0 92 -4 318 37
610 112 138 35 462 134 515 158 11 5 88 37 170 71 151 64 377 172 470 225 536
307 962 646 1332 1063 286 322 573 752 757 1137 198 412 368 951 421 1335 4
25 8 59 11 75 2 17 6 50 8 75 3 25 7 65 11 90 6 48 11 95 23 225 19 212 5 709
-28 965 -5 41 -12 98 -16 125 -3 28 -8 59 -10 70 -2 11 -7 34 -9 50 -3 17 -10
57 -16 90 -12 68 -63 278 -84 345 -183 584 -324 899 -594 1325 -110 174 -340
489 -391 535 -3 3 -18 21 -34 40 -147 181 -445 469 -676 654 -347 279 -698
487 -1175 696 -73 32 -435 163 -485 176 -8 2 -73 19 -144 38 -70 19 -142 37
-160 40 -17 3 -62 12 -101 20 -38 8 -88 17 -110 20 -22 4 -65 11 -95 16 -30 5
-73 12 -95 15 -23 3 -50 7 -60 9 -11 2 -45 7 -75 11 -85 11 -121 16 -144 22
-20 5 -664 12 -669 7z"/>
</g>
</svg>
