<?xml version="1.0" encoding="UTF-8" standalone="no"?>
<!DOCTYPE svg PUBLIC "-//W3C//DTD SVG 1.1//EN" "http://www.w3.org/Graphics/SVG/1.1/DTD/svg11.dtd">
<svg width="100%" height="100%" viewBox="0 0 3500 1500" version="1.1" xmlns="http://www.w3.org/2000/svg" xmlns:xlink="http://www.w3.org/1999/xlink" xml:space="preserve" xmlns:serif="http://www.serif.com/" style="fill-rule:evenodd;clip-rule:evenodd;stroke-linejoin:round;stroke-miterlimit:2;">
    <g transform="matrix(3.57927,0,0,3.57927,102.517,345.185)">
        <g transform="matrix(1.00421,0,0,1.00421,143.222,182.519)">
            <g id="DeckDeckGo">
                <path d="M-48.638,17.547C-60.505,28.083 -72.165,38.436 -84.051,48.989C-84.506,47.79 -84.35,46.915 -84.351,46.08C-84.363,32.802 -84.376,19.523 -84.339,6.245C-84.334,4.5 -84.482,-5.506 -86.158,-6.695" style="fill:white;fill-rule:nonzero;"/>
            </g>
        </g>
        <g transform="matrix(1.97769,0,0,1.92138,-17.1227,-26.5856)">
            <ellipse cx="68.687" cy="71.07" rx="51.212" ry="52.391" style="fill:white;"/>
        </g>
        <g transform="matrix(0.872459,0,0,0.872459,15.1774,15.1774)">
            <g transform="matrix(0.919051,0,0,1.01029,12.528,-4.06733)">
                <ellipse cx="117.765" cy="112.651" rx="100.516" ry="105.715" style="fill:white;"/>
            </g>
            <g id="DeckDeckGo1" serif:id="DeckDeckGo" transform="matrix(1,0,0,1,10.1124,-4.26326e-14)">
                <g transform="matrix(0.913962,0,0,0.913962,121.28,193.226)">
                    <path d="M0,-162.667C-3.139,-160.725 -4.707,-157.854 -5.736,-154.606C-6.261,-152.954 -6.208,-153.033 -7.839,-153.667C-12.122,-155.334 -15.746,-158.05 -19.412,-160.906C-20.632,-159.294 -20.978,-157.53 -21.121,-155.708C-21.392,-152.268 -20.596,-149.056 -19.061,-145.985C-18.157,-144.176 -18.414,-143.5 -20.036,-142.393C-27.385,-137.373 -32.891,-130.82 -35.484,-122.263C-39.12,-110.267 -39.731,-98.135 -36.063,-85.956C-34.426,-80.515 -31.416,-75.811 -28.502,-71.042C-27.669,-69.68 -26.721,-68.389 -25.819,-67.069C-25.18,-66.133 -24.75,-65.096 -24.469,-64.013C-24.224,-63.066 -24.229,-62.098 -24.884,-61.269C-25.275,-60.774 -25.647,-60.119 -26.374,-60.23C-27.056,-60.335 -26.979,-61.103 -27.14,-61.584C-30.003,-70.137 -35.304,-76.876 -42.453,-82.243C-43.215,-82.814 -44.034,-83.34 -44.892,-83.752C-57.319,-89.733 -65.569,-99.552 -70.929,-112.033C-71.306,-112.911 -71.655,-113.801 -72.024,-114.705C-80.387,-108.31 -91.715,-87.783 -94.247,-68.814C-96.617,-51.058 -93.729,-34.24 -85.561,-18.356C-77.36,-2.412 -65.102,9.483 -48.638,17.547C-60.505,28.083 -72.165,38.436 -84.051,48.989C-84.506,47.79 -84.35,46.915 -84.351,46.08C-84.363,32.802 -84.376,19.523 -84.339,6.245C-84.334,4.5 -84.513,3.18 -86.189,1.991C-89.434,-0.309 -92.357,-3.047 -95.287,-5.76C-99.985,-10.112 -104.137,-14.942 -108.071,-19.966C-113.857,-27.357 -118.633,-35.396 -122.407,-43.963C-126.233,-52.649 -129.234,-61.625 -130.645,-71.093C-131.242,-75.103 -131.8,-79.121 -132.374,-83.134C-132.621,-84.861 -132.373,-86.654 -132.521,-88.402C-132.863,-92.439 -132.639,-96.479 -132.422,-100.495C-132.218,-104.293 -131.466,-108.063 -130.935,-111.843C-129.468,-122.265 -126.215,-132.16 -121.862,-141.692C-118.582,-148.876 -114.567,-155.628 -109.931,-162.064C-104.529,-169.564 -98.255,-176.207 -91.385,-182.301C-86.135,-186.958 -80.398,-190.988 -74.359,-194.604C-66.796,-199.132 -58.79,-202.607 -50.471,-205.467C-44.193,-207.625 -37.747,-208.935 -31.208,-209.936C-25.939,-210.742 -20.669,-211.407 -15.327,-211.337C-11.49,-211.288 -7.597,-211.656 -3.829,-211.124C4.419,-209.959 12.729,-208.961 20.714,-206.404C29.39,-203.625 37.819,-200.198 45.682,-195.593C52.147,-191.807 58.302,-187.537 63.983,-182.58C72.088,-175.509 79.174,-167.6 85.211,-158.692C90.743,-150.53 95.228,-141.849 98.528,-132.587C100.931,-125.847 102.973,-118.957 104.027,-111.867C104.646,-107.715 105.163,-103.527 105.321,-99.297C105.429,-96.429 105.611,-93.561 105.574,-90.689C105.508,-85.436 104.925,-80.228 104.268,-75.015C103.146,-66.125 100.703,-57.587 97.512,-49.274C94.393,-41.148 90.423,-33.431 85.471,-26.228C82.578,-22.02 79.586,-17.9 76.211,-14.071C70.982,-8.137 65.257,-2.761 58.959,2.067C53.366,6.354 47.467,10.105 41.298,13.445C38.357,15.037 35.24,16.307 32.171,17.651C24.051,21.207 15.525,23.458 6.868,25.182C4.71,25.611 2.479,26.013 0.226,25.926C-0.552,25.895 -1.204,25.864 -1.258,24.837C-1.309,23.877 -0.599,23.861 -0.002,23.737C5.099,22.68 10.076,21.226 14.885,19.211C30.223,12.783 42.624,2.773 51.527,-11.316C55.708,-17.931 58.394,-25.216 58.959,-33.09C59.313,-38.025 58.08,-42.763 56.084,-47.269C54.824,-50.112 53.464,-52.913 52.068,-55.692C50.031,-59.75 50.184,-63.575 52.672,-67.465C55.036,-71.162 57.155,-75.021 59.259,-78.875C60.831,-81.755 62.232,-84.727 62.056,-88.163C61.949,-90.243 61.592,-90.599 59.545,-90.875C55.54,-91.416 51.973,-90.33 48.675,-88.129C45.088,-85.734 41.536,-83.283 37.906,-80.957C26.163,-73.431 13.425,-71.265 -0.189,-74.065C-1.431,-74.321 -2.645,-74.772 -3.828,-75.242C-8.79,-77.211 -10.028,-82.213 -6.079,-86.441C-3.949,-88.721 -1.161,-89.963 1.772,-90.863C4.979,-91.845 8.179,-92.824 11.328,-93.993C16.505,-95.915 20.575,-99.245 24.127,-103.368C26.622,-106.265 28.854,-109.383 31.789,-111.909C37.304,-116.656 44.512,-116.018 49.65,-112.112C50.981,-111.1 52.193,-109.927 53.416,-108.78C54.375,-107.881 55.337,-107.554 56.668,-108.029C58.469,-108.671 60.339,-109.145 62.282,-109.127C63.543,-109.116 63.723,-109.745 63.444,-110.827C62.666,-113.86 61.473,-116.733 60.109,-119.534C56.759,-126.422 52.573,-132.81 46.819,-137.856C41.351,-142.652 35.903,-147.673 28.69,-149.93C26.723,-150.546 24.764,-151.2 22.664,-151.229C22.194,-151.236 21.717,-151.337 21.26,-151.457C19.198,-151.998 19.124,-152.133 19.582,-154.23C19.983,-156.07 19.628,-156.457 17.868,-156.031C15.839,-155.54 14.053,-154.635 12.303,-153.423C7.62,-150.181 8.458,-150.558 4.862,-154.394C3.2,-156.166 2.187,-158.349 1.089,-160.475C0.73,-161.17 0.392,-161.877 0,-162.667" style="fill:rgb(58,129,254);fill-rule:nonzero;"/>
                </g>
                <g transform="matrix(0.913962,0,0,0.913962,-2.10032e-15,7.01288e-16)">
                    <path d="M150.476,94.545C150.69,96.671 149.656,98.485 148.335,100.099C145.599,103.442 140.276,102.944 137.624,99.179C135.218,95.762 136.062,90.529 139.456,88.074C141.59,86.532 143.954,86.332 146.207,87.604C148.797,89.066 150.829,91.053 150.476,94.545ZM147.531,94.008C147.537,94.012 147.586,93.63 147.52,93.269C147.204,91.507 145.145,89.728 143.289,89.573C141.992,89.465 140.37,90.638 139.685,92.287C139.355,93.082 139.034,93.887 139.064,94.808C139.14,97.086 140.854,99.081 143.099,99.395C145.103,99.675 146.674,98.468 147.401,96.108C147.569,95.567 147.647,95.026 147.531,94.008C147.53,94.008 147.53,94.006 147.53,94.002L147.531,94.008Z" style="fill:rgb(58,129,254);"/>
                </g>
                <g transform="matrix(0.913962,0,0,0.913962,-2.10032e-15,7.01288e-16)">
                    <path d="M189.481,90.541C189.505,93.505 186.969,96.088 184.069,96.053C181.072,96.017 178.501,93.21 178.531,90.006C178.556,87.276 181.028,84.582 183.539,84.547C186.58,84.504 189.456,87.405 189.481,90.541ZM184.003,92.833C182.445,92.798 181.449,91.689 181.487,90.033C181.52,88.652 182.409,87.604 183.578,87.572C185.027,87.531 186.626,89.201 186.572,90.699C186.522,92.106 185.603,92.869 184.003,92.833Z" style="fill:rgb(58,129,254);"/>
                </g>
            </g>
        </g>
    </g>
    <g transform="matrix(1,0,0,1,-413.433,2.46987)">
        <text x="1391.47px" y="926.005px" style="font-family:'OpenSans-Regular', 'Open Sans', sans-serif;font-size:400px;">DeckDeckGo</text>
    </g>
</svg>
